<?xml version="1.0" encoding="UTF-8"?>
<svg version="1.1" xmlns="http://www.w3.org/2000/svg" width="1024" height="1024">
<path d="M0 0 C0.83144531 0.01353516 1.66289062 0.02707031 2.51953125 0.04101562 C4.55497066 0.07610941 6.59007291 0.12990772 8.625 0.1875 C8.625 0.8475 8.625 1.5075 8.625 2.1875 C9.69878906 2.17589844 10.77257812 2.16429687 11.87890625 2.15234375 C13.31510241 2.14295685 14.75130048 2.13385762 16.1875 2.125 C17.24420898 2.11243164 17.24420898 2.11243164 18.32226562 2.09960938 C22.84539641 2.07876545 27.1585992 2.36549831 31.625 3.1875 C31.955 3.5175 32.285 3.8475 32.625 4.1875 C34.03450688 4.48259061 35.45526105 4.72455963 36.87890625 4.94140625 C37.73291016 5.07353516 38.58691406 5.20566406 39.46679688 5.34179688 C40.36462891 5.47650391 41.26246094 5.61121094 42.1875 5.75 C43.08919922 5.88857422 43.99089844 6.02714844 44.91992188 6.16992188 C47.15441433 6.51278051 49.3894227 6.85180023 51.625 7.1875 C51.625 7.8475 51.625 8.5075 51.625 9.1875 C52.57375 9.27 53.5225 9.3525 54.5 9.4375 C59.51477467 10.12741766 64.00954926 12.19087644 68.625 14.1875 C68.625 14.8475 68.625 15.5075 68.625 16.1875 C72.585 17.1775 72.585 17.1775 76.625 18.1875 C76.625 18.8475 76.625 19.5075 76.625 20.1875 C77.346875 20.290625 78.06875 20.39375 78.8125 20.5 C81.90246686 21.25532523 84.02058686 22.37887976 86.625 24.1875 C86.955 24.8475 87.285 25.5075 87.625 26.1875 C89.64169827 27.32100534 89.64169827 27.32100534 91.625 28.1875 C91.625 28.8475 91.625 29.5075 91.625 30.1875 C92.24375 30.331875 92.8625 30.47625 93.5 30.625 C95.625 31.1875 95.625 31.1875 97.625 32.1875 C97.625 32.8475 97.625 33.5075 97.625 34.1875 C98.223125 34.290625 98.82125 34.39375 99.4375 34.5 C101.93369017 35.28451691 102.88231865 36.28639308 104.625 38.1875 C105.285 38.5175 105.945 38.8475 106.625 39.1875 C106.625 39.8475 106.625 40.5075 106.625 41.1875 C107.615 41.5175 108.605 41.8475 109.625 42.1875 C109.625 42.8475 109.625 43.5075 109.625 44.1875 C110.945 44.8475 112.265 45.5075 113.625 46.1875 C113.625 46.8475 113.625 47.5075 113.625 48.1875 C114.223125 48.455625 114.82125 48.72375 115.4375 49 C117.62347854 50.18667406 119.03832594 51.28349113 120.625 53.1875 C120.625 53.8475 120.625 54.5075 120.625 55.1875 C121.223125 55.455625 121.82125 55.72375 122.4375 56 C124.64319033 57.19737475 126.06083187 58.23228984 127.625 60.1875 C127.625 61.1775 127.625 62.1675 127.625 63.1875 C128.285 63.1875 128.945 63.1875 129.625 63.1875 C129.625 64.1775 129.625 65.1675 129.625 66.1875 C130.285 66.1875 130.945 66.1875 131.625 66.1875 C131.625 65.1975 131.625 64.2075 131.625 63.1875 C133.5 61 133.5 61 135.625 59.1875 C136.285 59.1875 136.945 59.1875 137.625 59.1875 C138.285 57.8675 138.945 56.5475 139.625 55.1875 C140.285 55.1875 140.945 55.1875 141.625 55.1875 C141.955 54.1975 142.285 53.2075 142.625 52.1875 C144.5625 50 144.5625 50 146.625 48.1875 C147.285 48.1875 147.945 48.1875 148.625 48.1875 C148.955 47.1975 149.285 46.2075 149.625 45.1875 C151.62621175 42.82243157 152.59299661 42.1981678 155.625 41.1875 C156.85980824 39.69273213 158.09269993 38.19613793 159.30078125 36.6796875 C161.68383919 33.99435377 164.67760778 32.63487966 167.875 31.125 C169.80553285 30.30746415 169.80553285 30.30746415 170.625 28.1875 C171.615 27.8575 172.605 27.5275 173.625 27.1875 C173.955 26.5275 174.285 25.8675 174.625 25.1875 C176.47265625 24.5546875 176.47265625 24.5546875 178.6875 24.0625 C179.42097656 23.89492188 180.15445312 23.72734375 180.91015625 23.5546875 C181.47605469 23.43351562 182.04195312 23.31234375 182.625 23.1875 C182.625 22.5275 182.625 21.8675 182.625 21.1875 C184.605 20.8575 186.585 20.5275 188.625 20.1875 C188.625 19.5275 188.625 18.8675 188.625 18.1875 C191.265 17.5275 193.905 16.8675 196.625 16.1875 C196.625 15.5275 196.625 14.8675 196.625 14.1875 C197.15867187 14.01734375 197.69234375 13.8471875 198.2421875 13.671875 C202.41347812 12.31512303 206.46643941 10.85089852 210.5 9.125 C217.54665784 6.26023723 225.00037649 4.77535819 232.625 5.1875 C232.625 4.5275 232.625 3.8675 232.625 3.1875 C238.34540011 2.3554418 243.84740116 2.06713336 249.625 2.1875 C249.625 1.5275 249.625 0.8675 249.625 0.1875 C255.90543803 0.11118154 262.18575562 0.05878779 268.46655273 0.02270508 C270.60136382 0.00765638 272.73614419 -0.01278736 274.87084961 -0.03881836 C277.94652914 -0.07537386 281.02179844 -0.0922659 284.09765625 -0.10546875 C285.04584732 -0.12095261 285.99403839 -0.13643646 286.97096252 -0.15238953 C293.16696878 -0.15394879 298.43400561 0.37280212 303.28125 4.6484375 C303.7246875 5.15632813 304.168125 5.66421875 304.625 6.1875 C306.10735053 7.41742128 307.60867749 8.62471404 309.125 9.8125 C309.8984375 10.42351562 310.671875 11.03453125 311.46875 11.6640625 C313.63800927 13.35247544 313.63800927 13.35247544 316.625 14.1875 C316.625 14.8475 316.625 15.5075 316.625 16.1875 C317.3675 16.455625 318.11 16.72375 318.875 17 C321.51561949 18.14026751 323.48052844 19.28130306 325.625 21.1875 C325.625 21.8475 325.625 22.5075 325.625 23.1875 C326.553125 23.3421875 326.553125 23.3421875 327.5 23.5 C329.625 24.1875 329.625 24.1875 331.625 27.1875 C332.615 27.5175 333.605 27.8475 334.625 28.1875 C334.625 28.8475 334.625 29.5075 334.625 30.1875 C335.945 30.8475 337.265 31.5075 338.625 32.1875 C338.625 32.8475 338.625 33.5075 338.625 34.1875 C341.1 34.6825 341.1 34.6825 343.625 35.1875 C343.625 35.8475 343.625 36.5075 343.625 37.1875 C346.1 38.1775 346.1 38.1775 348.625 39.1875 C348.625 39.8475 348.625 40.5075 348.625 41.1875 C349.16125 41.27 349.6975 41.3525 350.25 41.4375 C353.48930387 42.46043806 355.89818679 44.18783698 358.625 46.1875 C358.955 46.8475 359.285 47.5075 359.625 48.1875 C360.615 48.5175 361.605 48.8475 362.625 49.1875 C363.625 50.1875 364.625 51.1875 365.625 52.1875 C366.615 52.5175 367.605 52.8475 368.625 53.1875 C368.955 53.8475 369.285 54.5075 369.625 55.1875 C371.26863134 55.90909424 372.93550386 56.58101421 374.625 57.1875 C374.625 57.8475 374.625 58.5075 374.625 59.1875 C376.605 59.8475 378.585 60.5075 380.625 61.1875 C380.625 61.8475 380.625 62.5075 380.625 63.1875 C381.615 63.5175 382.605 63.8475 383.625 64.1875 C383.955 64.8475 384.285 65.5075 384.625 66.1875 C385.615 66.5175 386.605 66.8475 387.625 67.1875 C388.625 68.1875 389.625 69.1875 390.625 70.1875 C391.615 70.5175 392.605 70.8475 393.625 71.1875 C395.29166667 73.1875 396.95833333 75.1875 398.625 77.1875 C399.615 77.5175 400.605 77.8475 401.625 78.1875 C402.553125 79.363125 402.553125 79.363125 403.5 80.5625 C405.72338793 83.30903803 407.53942111 84.53182352 410.625 86.1875 C415.51388889 88.96527778 415.51388889 88.96527778 416.625 91.1875 C417.615 91.5175 418.605 91.8475 419.625 92.1875 C420.625 93.1875 421.625 94.1875 422.625 95.1875 C423.615 95.5175 424.605 95.8475 425.625 96.1875 C427.8125 98.125 427.8125 98.125 429.625 100.1875 C429.625 100.8475 429.625 101.5075 429.625 102.1875 C430.5840625 102.373125 430.5840625 102.373125 431.5625 102.5625 C432.243125 102.76875 432.92375 102.975 433.625 103.1875 C433.955 103.8475 434.285 104.5075 434.625 105.1875 C436.28720581 106.19489746 437.95520674 107.19272955 439.625 108.1875 C441.07566664 109.18953455 442.51260467 110.21164542 443.9375 111.25 C444.63488281 111.75660156 445.33226562 112.26320313 446.05078125 112.78515625 C446.57027344 113.24792969 447.08976563 113.71070313 447.625 114.1875 C447.625 114.8475 447.625 115.5075 447.625 116.1875 C448.5840625 116.373125 448.5840625 116.373125 449.5625 116.5625 C450.243125 116.76875 450.92375 116.975 451.625 117.1875 C451.955 117.8475 452.285 118.5075 452.625 119.1875 C454.26863134 119.90909424 455.93550386 120.58101421 457.625 121.1875 C457.625 121.8475 457.625 122.5075 457.625 123.1875 C458.223125 123.290625 458.82125 123.39375 459.4375 123.5 C461.93369017 124.28451691 462.88231865 125.28639308 464.625 127.1875 C465.285 127.5175 465.945 127.8475 466.625 128.1875 C466.625 128.8475 466.625 129.5075 466.625 130.1875 C467.594375 130.47625 468.56375 130.765 469.5625 131.0625 C472.625 132.1875 472.625 132.1875 473.625 134.1875 C474.615 134.5175 475.605 134.8475 476.625 135.1875 C478.8125 137.125 478.8125 137.125 480.625 139.1875 C480.625 139.8475 480.625 140.5075 480.625 141.1875 C481.5221875 141.3421875 481.5221875 141.3421875 482.4375 141.5 C484.94037724 142.28661856 485.83814755 143.32295831 487.625 145.1875 C488.615 145.5175 489.605 145.8475 490.625 146.1875 C491.64519573 147.1668879 492.64649805 148.16645449 493.625 149.1875 C494.285 149.5175 494.945 149.8475 495.625 150.1875 C495.625 150.8475 495.625 151.5075 495.625 152.1875 C496.615 152.5175 497.605 152.8475 498.625 153.1875 C498.625 153.8475 498.625 154.5075 498.625 155.1875 C500.605 155.8475 502.585 156.5075 504.625 157.1875 C504.625 157.8475 504.625 158.5075 504.625 159.1875 C505.5221875 159.3421875 505.5221875 159.3421875 506.4375 159.5 C508.94037724 160.28661856 509.83814755 161.32295831 511.625 163.1875 C512.615 163.5175 513.605 163.8475 514.625 164.1875 C515.285 165.1775 515.945 166.1675 516.625 167.1875 C517.615 167.5175 518.605 167.8475 519.625 168.1875 C520.95833333 169.85416667 522.29166667 171.52083333 523.625 173.1875 C524.615 173.5175 525.605 173.8475 526.625 174.1875 C527.64525024 175.16683112 528.64385112 176.16899773 529.625 177.1875 C531.42058954 178.5087089 533.25588263 179.75398381 535.1015625 181.00390625 C536.625 182.1875 536.625 182.1875 537.625 184.1875 C538.615 184.5175 539.605 184.8475 540.625 185.1875 C541.97939668 187.89629335 541.69001451 190.19683268 541.625 193.1875 C540.305 193.1875 538.985 193.1875 537.625 193.1875 C537.625 192.5275 537.625 191.8675 537.625 191.1875 C536.67625 191.043125 535.7275 190.89875 534.75 190.75 C531.625 190.1875 531.625 190.1875 529.625 189.1875 C529.625 188.5275 529.625 187.8675 529.625 187.1875 C527.645 186.8575 525.665 186.5275 523.625 186.1875 C523.625 185.5275 523.625 184.8675 523.625 184.1875 C522.531875 184.043125 521.43875 183.89875 520.3125 183.75 C516.625 183.1875 516.625 183.1875 513.625 182.1875 C513.625 181.5275 513.625 180.8675 513.625 180.1875 C510.985 179.8575 508.345 179.5275 505.625 179.1875 C505.625 178.5275 505.625 177.8675 505.625 177.1875 C504.5525 177.043125 503.48 176.89875 502.375 176.75 C499.70837051 176.35000558 497.21100271 175.91158076 494.625 175.1875 C494.625 174.5275 494.625 173.8675 494.625 173.1875 C491.325 172.8575 488.025 172.5275 484.625 172.1875 C484.625 171.5275 484.625 170.8675 484.625 170.1875 C483.42875 170.043125 482.2325 169.89875 481 169.75 C477.5244842 169.31710657 474.07549966 168.79133744 470.625 168.1875 C470.625 167.5275 470.625 166.8675 470.625 166.1875 C469.43003906 166.11402344 469.43003906 166.11402344 468.2109375 166.0390625 C467.15132812 165.96429688 466.09171875 165.88953125 465 165.8125 C463.95585938 165.74289062 462.91171875 165.67328125 461.8359375 165.6015625 C458.53560113 165.17597168 455.77176268 164.24712417 452.625 163.1875 C450.17481213 162.76252095 447.71536073 162.38811368 445.25 162.0625 C443.38214844 161.81113281 443.38214844 161.81113281 441.4765625 161.5546875 C440.53554688 161.43351563 439.59453125 161.31234375 438.625 161.1875 C438.625 160.5275 438.625 159.8675 438.625 159.1875 C437.60921875 159.12691406 436.5934375 159.06632813 435.546875 159.00390625 C428.92451092 158.60367564 422.30297002 158.1902438 415.6875 157.6875 C414.72972656 157.6153125 413.77195312 157.543125 412.78515625 157.46875 C410.625 157.1875 410.625 157.1875 409.625 156.1875 C407.24421659 155.93313604 404.89700602 155.7563995 402.5078125 155.62890625 C401.7261673 155.58665421 400.94452209 155.54440216 400.13919067 155.50086975 C387.6290048 154.91353951 375.09585592 155.07759814 362.57531738 155.11883545 C359.07495744 155.12923297 355.57458982 155.13366755 352.07421875 155.13867188 C345.25779427 155.14926171 338.44139935 155.16623221 331.625 155.1875 C331.625 155.8475 331.625 156.5075 331.625 157.1875 C330.81232666 157.27314209 329.99965332 157.35878418 329.16235352 157.44702148 C325.50357159 157.83514956 321.84554426 158.22998266 318.1875 158.625 C316.90810547 158.75970703 315.62871094 158.89441406 314.31054688 159.03320312 C313.09560547 159.16533203 311.88066406 159.29746094 310.62890625 159.43359375 C308.94003296 159.61426392 308.94003296 159.61426392 307.21704102 159.79858398 C304.70080128 159.91357948 304.70080128 159.91357948 303.625 161.1875 C300.43219384 161.73105355 297.22860399 162.15340986 294.01953125 162.58984375 C290.72486684 163.169917 287.79079969 164.12940051 284.625 165.1875 C282.84103365 165.45383864 281.04783846 165.66672931 279.25 165.8125 C278.37601563 165.88726562 277.50203125 165.96203125 276.6015625 166.0390625 C275.62316406 166.11253906 275.62316406 166.11253906 274.625 166.1875 C274.625 166.8475 274.625 167.5075 274.625 168.1875 C273.20961283 168.52622513 271.79262037 168.85824624 270.375 169.1875 C269.58609375 169.373125 268.7971875 169.55875 267.984375 169.75 C265.625 170.1875 265.625 170.1875 261.625 170.1875 C261.625 170.8475 261.625 171.5075 261.625 172.1875 C258.985 172.5175 256.345 172.8475 253.625 173.1875 C253.625 173.8475 253.625 174.5075 253.625 175.1875 C248.675 176.1775 248.675 176.1775 243.625 177.1875 C243.625 177.8475 243.625 178.5075 243.625 179.1875 C242.72007812 179.47753906 242.72007812 179.47753906 241.796875 179.7734375 C240.99765625 180.03382813 240.1984375 180.29421875 239.375 180.5625 C238.58609375 180.81773437 237.7971875 181.07296875 236.984375 181.3359375 C234.62251144 182.12862701 234.62251144 182.12862701 232.515625 183.2890625 C230.625 184.1875 230.625 184.1875 227.625 184.1875 C227.625 184.8475 227.625 185.5075 227.625 186.1875 C226.490625 186.31125 225.35625 186.435 224.1875 186.5625 C223.011875 186.76875 221.83625 186.975 220.625 187.1875 C220.295 187.8475 219.965 188.5075 219.625 189.1875 C217.64611039 189.91443904 215.64545442 190.58566251 213.625 191.1875 C213.625 191.8475 213.625 192.5075 213.625 193.1875 C210.53139788 194.73430106 207.44090654 196.27433654 204.3125 197.75 C201.52354759 198.90893576 201.52354759 198.90893576 200.625 201.1875 C198.0625 201.8125 198.0625 201.8125 195.625 202.1875 C195.625 202.8475 195.625 203.5075 195.625 204.1875 C194.985625 204.47625 194.34625 204.765 193.6875 205.0625 C191.47293921 206.01573451 191.47293921 206.01573451 190.625 208.1875 C189.635 208.5175 188.645 208.8475 187.625 209.1875 C187.295 209.8475 186.965 210.5075 186.625 211.1875 C184.95833333 211.85416667 183.29166667 212.52083333 181.625 213.1875 C181.295 213.8475 180.965 214.5075 180.625 215.1875 C179.635 215.5175 178.645 215.8475 177.625 216.1875 C176.42339556 217.64207379 175.22257142 219.0996312 174.1015625 220.6171875 C172.625 222.1875 172.625 222.1875 170.37890625 223.46484375 C166.68294249 225.77678704 163.9384236 228.73813422 160.9375 231.875 C158.87136957 234.03285654 156.78589295 236.12094344 154.625 238.1875 C153.965 238.1875 153.305 238.1875 152.625 238.1875 C152.356875 238.744375 152.08875 239.30125 151.8125 239.875 C149.56890197 244.24411195 147.36487151 247.93019255 143.625 251.1875 C142.965 251.1875 142.305 251.1875 141.625 251.1875 C141.521875 251.785625 141.41875 252.38375 141.3125 253 C140.52588144 255.50287724 139.48954169 256.40064755 137.625 258.1875 C137.295 259.1775 136.965 260.1675 136.625 261.1875 C132.28214286 265.1875 132.28214286 265.1875 128.625 265.1875 C127.23828125 263.5078125 127.23828125 263.5078125 125.9375 261.3125 C125.50050781 260.59320312 125.06351562 259.87390625 124.61328125 259.1328125 C123.625 257.1875 123.625 257.1875 123.625 255.1875 C122.635 254.8575 121.645 254.5275 120.625 254.1875 C116.625 249.73035714 116.625 249.73035714 116.625 247.1875 C115.965 247.1875 115.305 247.1875 114.625 247.1875 C113.41885194 245.74682315 112.21726601 244.30190466 111.046875 242.83203125 C109.47766512 240.92711392 109.47766512 240.92711392 106.625 238.6875 C103.52053597 236.10044664 101.19965276 233.29028666 98.625 230.1875 C96.34245149 228.22344663 94.31370411 226.53185206 91.625 225.1875 C91.625 224.5275 91.625 223.8675 91.625 223.1875 C90.635 222.8575 89.645 222.5275 88.625 222.1875 C88.295 221.5275 87.965 220.8675 87.625 220.1875 C85.28882963 218.67214624 82.97038618 217.34539082 80.4375 216.1875 C78.625 215.1875 78.625 215.1875 76.625 212.1875 C75.635 211.8575 74.645 211.5275 73.625 211.1875 C73.625 210.5275 73.625 209.8675 73.625 209.1875 C72.92375 208.919375 72.2225 208.65125 71.5 208.375 C68.4600176 207.1193551 65.5522226 205.68514877 62.625 204.1875 C62.625 203.5275 62.625 202.8675 62.625 202.1875 C60.315 201.5275 58.005 200.8675 55.625 200.1875 C55.625 199.5275 55.625 198.8675 55.625 198.1875 C53.975 197.8575 52.325 197.5275 50.625 197.1875 C50.625 196.5275 50.625 195.8675 50.625 195.1875 C48.645 194.5275 46.665 193.8675 44.625 193.1875 C44.625 192.5275 44.625 191.8675 44.625 191.1875 C43.779375 191.084375 42.93375 190.98125 42.0625 190.875 C38.28083874 190.11866775 35.13050539 188.77489867 31.625 187.1875 C30.635 186.8575 29.645 186.5275 28.625 186.1875 C28.625 185.5275 28.625 184.8675 28.625 184.1875 C25.655 183.5275 22.685 182.8675 19.625 182.1875 C19.625 181.5275 19.625 180.8675 19.625 180.1875 C17.315 179.8575 15.005 179.5275 12.625 179.1875 C12.625 178.5275 12.625 177.8675 12.625 177.1875 C11.5525 177.043125 10.48 176.89875 9.375 176.75 C6.70837051 176.35000558 4.21100271 175.91158076 1.625 175.1875 C1.625 174.5275 1.625 173.8675 1.625 173.1875 C-1.345 172.8575 -4.315 172.5275 -7.375 172.1875 C-7.375 171.5275 -7.375 170.8675 -7.375 170.1875 C-8.03886719 170.12691406 -8.70273437 170.06632813 -9.38671875 170.00390625 C-18.15707381 169.17168278 -18.15707381 169.17168278 -22.375 168.1875 C-22.375 167.5275 -22.375 166.8675 -22.375 166.1875 C-23.55255859 166.11402344 -23.55255859 166.11402344 -24.75390625 166.0390625 C-26.32978516 165.92691406 -26.32978516 165.92691406 -27.9375 165.8125 C-28.97003906 165.74289062 -30.00257813 165.67328125 -31.06640625 165.6015625 C-34.375 165.1875 -34.375 165.1875 -37.71875 164.21875 C-41.91765357 163.03444387 -45.98538761 162.51486308 -50.3125 162.0625 C-51.48135742 161.93294922 -51.48135742 161.93294922 -52.67382812 161.80078125 C-54.5736337 161.59098677 -56.47424174 161.38848006 -58.375 161.1875 C-58.375 160.5275 -58.375 159.8675 -58.375 159.1875 C-66.36465684 159.16416767 -74.35429908 159.1464797 -82.34398174 159.13568783 C-86.05526128 159.13050418 -89.76651723 159.12349028 -93.4777832 159.11206055 C-97.06990091 159.10106898 -100.66199616 159.0951893 -104.25412941 159.09262276 C-106.26836005 159.08991874 -108.28258186 159.08213357 -110.29679871 159.07420349 C-118.33301897 159.07372188 -126.39361961 159.15198189 -134.375 160.1875 C-134.705 160.5175 -135.035 160.8475 -135.375 161.1875 C-136.84802586 161.40175831 -138.32962147 161.55795055 -139.8125 161.6875 C-140.70710938 161.77 -141.60171875 161.8525 -142.5234375 161.9375 C-144.42447917 162.10416667 -146.32552083 162.27083333 -148.2265625 162.4375 C-149.12117188 162.52 -150.01578125 162.6025 -150.9375 162.6875 C-151.76378906 162.7596875 -152.59007812 162.831875 -153.44140625 162.90625 C-155.37797358 162.99115276 -155.37797358 162.99115276 -156.375 164.1875 C-158.77259386 164.59251894 -161.15226914 164.94158183 -163.5625 165.25 C-164.5534668 165.38631836 -164.5534668 165.38631836 -165.56445312 165.52539062 C-169.52864041 166.04586141 -173.37884268 166.28072295 -177.375 166.1875 C-177.375 166.8475 -177.375 167.5075 -177.375 168.1875 C-179.26992006 168.52598652 -181.16598466 168.85806911 -183.0625 169.1875 C-184.11824219 169.373125 -185.17398438 169.55875 -186.26171875 169.75 C-189.02404062 170.13818074 -191.59242043 170.27009976 -194.375 170.1875 C-194.375 170.8475 -194.375 171.5075 -194.375 172.1875 C-195.03886719 172.30867187 -195.70273438 172.42984375 -196.38671875 172.5546875 C-200.95865685 173.42235459 -205.05860626 174.43761064 -209.375 176.1875 C-211.70097511 176.5688074 -214.03412158 176.91210254 -216.375 177.1875 C-216.375 177.8475 -216.375 178.5075 -216.375 179.1875 C-219.345 179.5175 -222.315 179.8475 -225.375 180.1875 C-225.375 180.8475 -225.375 181.5075 -225.375 182.1875 C-229.25184087 183.38037411 -232.29121923 184.1875 -236.375 184.1875 C-236.375 184.8475 -236.375 185.5075 -236.375 186.1875 C-238.14255526 187.02776396 -239.91417263 187.85948722 -241.6875 188.6875 C-242.67363281 189.1515625 -243.65976563 189.615625 -244.67578125 190.09375 C-247.375 191.1875 -247.375 191.1875 -250.375 191.1875 C-250.375 191.8475 -250.375 192.5075 -250.375 193.1875 C-252.685 193.5175 -254.995 193.8475 -257.375 194.1875 C-257.705 192.5375 -258.035 190.8875 -258.375 189.1875 C-257.4159375 188.7853125 -257.4159375 188.7853125 -256.4375 188.375 C-254.04368314 187.30082248 -254.04368314 187.30082248 -253.375 184.1875 C-252.385 184.1875 -251.395 184.1875 -250.375 184.1875 C-250.045 183.1975 -249.715 182.2075 -249.375 181.1875 C-247.37378825 178.82243157 -246.40700339 178.1981678 -243.375 177.1875 C-242.715 176.506875 -242.055 175.82625 -241.375 175.125 C-239.375 173.1875 -239.375 173.1875 -236.375 173.1875 C-236.045 172.1975 -235.715 171.2075 -235.375 170.1875 C-233.37378825 167.82243157 -232.40700339 167.1981678 -229.375 166.1875 C-228.59125 165.383125 -227.8075 164.57875 -227 163.75 C-224.45072514 161.26142216 -222.72286879 160.23968733 -219.375 159.1875 C-219.375 158.5275 -219.375 157.8675 -219.375 157.1875 C-218.7975 156.960625 -218.22 156.73375 -217.625 156.5 C-215.18529744 155.25764311 -215.18529744 155.25764311 -213.375 152.6875 C-211.37557447 150.18821809 -210.204556 149.465364 -207.375 148.1875 C-206.859375 147.671875 -206.34375 147.15625 -205.8125 146.625 C-204.375 145.1875 -204.375 145.1875 -201.375 144.1875 C-200.715 143.1975 -200.055 142.2075 -199.375 141.1875 C-198.385 141.1875 -197.395 141.1875 -196.375 141.1875 C-196.375 140.5275 -196.375 139.8675 -196.375 139.1875 C-194.9140625 137.8984375 -194.9140625 137.8984375 -193 136.5625 C-192.37351562 136.11648438 -191.74703125 135.67046875 -191.1015625 135.2109375 C-189.375 134.1875 -189.375 134.1875 -187.375 134.1875 C-187.045 133.1975 -186.715 132.2075 -186.375 131.1875 C-185.385 130.8575 -184.395 130.5275 -183.375 130.1875 C-182.4159375 128.9809375 -182.4159375 128.9809375 -181.4375 127.75 C-179.42296266 125.24708997 -178.21713014 124.46155834 -175.375 123.1875 C-175.045 122.5275 -174.715 121.8675 -174.375 121.1875 C-173.59125 120.878125 -172.8075 120.56875 -172 120.25 C-169.38291846 119.19070509 -168.27921862 118.1823957 -166.375 116.1875 C-165.715 116.1875 -165.055 116.1875 -164.375 116.1875 C-164.375 115.5275 -164.375 114.8675 -164.375 114.1875 C-162.951875 113.81625 -162.951875 113.81625 -161.5 113.4375 C-157.89872681 111.99699073 -157.88319697 111.50553333 -156.375 108.1875 C-154.73357037 107.1465934 -153.06787785 106.14245674 -151.375 105.1875 C-151.045 104.5275 -150.715 103.8675 -150.375 103.1875 C-149.385 102.8575 -148.395 102.5275 -147.375 102.1875 C-146.715 101.506875 -146.055 100.82625 -145.375 100.125 C-143.375 98.1875 -143.375 98.1875 -140.375 98.1875 C-139.88 96.7025 -139.88 96.7025 -139.375 95.1875 C-137.3125 94.5 -137.3125 94.5 -135.375 94.1875 C-135.375 93.5275 -135.375 92.8675 -135.375 92.1875 C-133.40366014 90.81214661 -131.39818078 89.48538956 -129.375 88.1875 C-128.4675 87.445 -127.56 86.7025 -126.625 85.9375 C-124.375 84.1875 -124.375 84.1875 -122.375 84.1875 C-122.045 83.1975 -121.715 82.2075 -121.375 81.1875 C-120.385 80.8575 -119.395 80.5275 -118.375 80.1875 C-117.88 79.6925 -117.385 79.1975 -116.875 78.6875 C-115.375 77.1875 -115.375 77.1875 -112.375 76.1875 C-111.385 74.7025 -111.385 74.7025 -110.375 73.1875 C-109.385 73.1875 -108.395 73.1875 -107.375 73.1875 C-107.375 72.5275 -107.375 71.8675 -107.375 71.1875 C-105.3275159 68.73051908 -103.19731535 67.59865768 -100.375 66.1875 C-100.045 65.5275 -99.715 64.8675 -99.375 64.1875 C-97.70833333 63.52083333 -96.04166667 62.85416667 -94.375 62.1875 C-94.045 61.5275 -93.715 60.8675 -93.375 60.1875 C-92.385 59.8575 -91.395 59.5275 -90.375 59.1875 C-89.92125 58.6925 -89.4675 58.1975 -89 57.6875 C-86.90581119 55.75440264 -85.15349308 55.56297204 -82.375 55.1875 C-82.375 54.5275 -82.375 53.8675 -82.375 53.1875 C-81.385 52.8575 -80.395 52.5275 -79.375 52.1875 C-78.88 51.6925 -78.385 51.1975 -77.875 50.6875 C-76.375 49.1875 -76.375 49.1875 -73.375 48.1875 C-72.715 47.1975 -72.055 46.2075 -71.375 45.1875 C-70.385 44.8575 -69.395 44.5275 -68.375 44.1875 C-67.776875 43.383125 -67.17875 42.57875 -66.5625 41.75 C-63.98327802 38.72862568 -62.07189967 38.39301076 -58.375 37.1875 C-57.28333725 35.25419397 -57.28333725 35.25419397 -56.375 33.1875 C-52.08928571 30.1875 -52.08928571 30.1875 -49.375 30.1875 C-49.375 29.5275 -49.375 28.8675 -49.375 28.1875 C-48.59125 27.919375 -47.8075 27.65125 -47 27.375 C-44.09385077 26.33935568 -44.09385077 26.33935568 -42.375 23.1875 C-41.715 23.1875 -41.055 23.1875 -40.375 23.1875 C-40.375 22.5275 -40.375 21.8675 -40.375 21.1875 C-39.385 20.8575 -38.395 20.5275 -37.375 20.1875 C-37.045 19.5275 -36.715 18.8675 -36.375 18.1875 C-33.84250914 16.56951973 -31.23765879 15.10946522 -28.625 13.625 C-26.25995578 12.38487444 -26.25995578 12.38487444 -25.375 10.1875 C-24.385 9.8575 -23.395 9.5275 -22.375 9.1875 C-21.900625 8.6925 -21.42625 8.1975 -20.9375 7.6875 C-19.12306281 5.94564029 -17.81940923 5.60894987 -15.375 5.1875 C-15.375 4.5275 -15.375 3.8675 -15.375 3.1875 C-10.10776905 -0.05977345 -5.97550061 -0.18584093 0 0 Z " fill="currentColor" transform="translate(370.375,311.8125)"/>
<path d="M0 0 C4.73409309 0.00568831 9.46812977 0.00231651 14.20222092 -0.0034523 C38.09004564 -0.02791284 61.94094021 0.30709109 85.81494141 1.13037109 C85.81494141 1.79037109 85.81494141 2.45037109 85.81494141 3.13037109 C86.42789063 3.12513428 87.04083984 3.11989746 87.67236328 3.11450195 C127.7672947 2.81836325 127.7672947 2.81836325 132.62744141 6.50537109 C133.81494141 8.13037109 133.81494141 8.13037109 134.81494141 11.13037109 C135.47494141 11.46037109 136.13494141 11.79037109 136.81494141 12.13037109 C137.14827474 13.79703776 137.48160807 15.46370443 137.81494141 17.13037109 C138.47494141 17.46037109 139.13494141 17.79037109 139.81494141 18.13037109 C140.53653565 19.77400243 141.20845561 21.44087495 141.81494141 23.13037109 C142.47494141 23.13037109 143.13494141 23.13037109 143.81494141 23.13037109 C145.81494141 26.13037109 145.81494141 26.13037109 145.81494141 29.13037109 C146.47494141 29.13037109 147.13494141 29.13037109 147.81494141 29.13037109 C148.14494141 30.45037109 148.47494141 31.77037109 148.81494141 33.13037109 C149.47494141 33.13037109 150.13494141 33.13037109 150.81494141 33.13037109 C151.10369141 33.93474609 151.39244141 34.73912109 151.68994141 35.56787109 C152.54756708 38.26301789 152.54756708 38.26301789 154.81494141 39.13037109 C156.94332094 42.32294039 158.48086219 45.53861936 159.81494141 49.13037109 C160.47494141 49.13037109 161.13494141 49.13037109 161.81494141 49.13037109 C162.14494141 50.45037109 162.47494141 51.77037109 162.81494141 53.13037109 C163.47494141 53.13037109 164.13494141 53.13037109 164.81494141 53.13037109 C165.26869141 54.26474609 165.72244141 55.39912109 166.18994141 56.56787109 C167.38589947 60.17758801 167.38589947 60.17758801 169.81494141 61.13037109 C170.14494141 62.12037109 170.47494141 63.11037109 170.81494141 64.13037109 C171.47494141 64.46037109 172.13494141 64.79037109 172.81494141 65.13037109 C176.21962509 69.58264976 175.81494141 70.92041233 175.81494141 77.13037109 C167.23494141 77.13037109 158.65494141 77.13037109 149.81494141 77.13037109 C149.81494141 76.47037109 149.81494141 75.81037109 149.81494141 75.13037109 C113.84494141 75.13037109 77.87494141 75.13037109 40.81494141 75.13037109 C40.81494141 75.79037109 40.81494141 76.45037109 40.81494141 77.13037109 C15.14605186 77.74425625 -10.50735578 78.33329519 -36.18505859 78.13037109 C-36.18505859 78.79037109 -36.18505859 79.45037109 -36.18505859 80.13037109 C-37.04727524 80.16573471 -37.90949188 80.20109833 -38.7978363 80.23753357 C-46.90632572 80.57094487 -55.01461011 80.90889885 -63.12269497 81.25201321 C-67.29157603 81.42826802 -71.46051613 81.60273832 -75.62963867 81.77319336 C-79.64981591 81.93762348 -83.66977504 82.10665873 -87.68962288 82.27894783 C-89.22661486 82.34400033 -90.76367911 82.40736675 -92.30080986 82.46905327 C-94.4466029 82.55544883 -96.59206533 82.647728 -98.73754883 82.74145508 C-99.9611058 82.79252914 -101.18466278 82.84360321 -102.44529724 82.89622498 C-105.09584381 82.82638061 -105.09584381 82.82638061 -106.18505859 84.13037109 C-109.02416151 84.37606269 -111.84005026 84.55847212 -114.68505859 84.69287109 C-115.52915283 84.73532959 -116.37324707 84.77778809 -117.24291992 84.8215332 C-125.5590911 85.20697917 -133.86225784 85.22628045 -142.18505859 85.13037109 C-142.18505859 85.79037109 -142.18505859 86.45037109 -142.18505859 87.13037109 C-146.41359424 87.47203423 -150.64296258 87.80211718 -154.87255859 88.13037109 C-156.05140625 88.22576172 -157.23025391 88.32115234 -158.44482422 88.41943359 C-166.37571929 89.02783102 -174.23190203 89.24983021 -182.18505859 89.13037109 C-182.18505859 89.79037109 -182.18505859 90.45037109 -182.18505859 91.13037109 C-182.84626709 91.18572021 -183.50747559 91.24106934 -184.1887207 91.2980957 C-187.16708239 91.55002824 -190.14480484 91.80885612 -193.12255859 92.06787109 C-194.16347656 92.15488281 -195.20439453 92.24189453 -196.27685547 92.33154297 C-197.26621094 92.41855469 -198.25556641 92.50556641 -199.27490234 92.59521484 C-200.19134521 92.67376709 -201.10778809 92.75231934 -202.05200195 92.83325195 C-204.16469686 92.9090786 -204.16469686 92.9090786 -205.18505859 94.13037109 C-207.31450686 94.41821583 -209.45208596 94.64631316 -211.59130859 94.84912109 C-212.89197266 94.97673828 -214.19263672 95.10435547 -215.53271484 95.23583984 C-217.61318592 95.43428478 -219.69379879 95.63119834 -221.77441406 95.828125 C-223.77622139 96.01906662 -225.77752548 96.2152613 -227.77880859 96.41162109 C-228.98214844 96.52570313 -230.18548828 96.63978516 -231.42529297 96.75732422 C-234.09043714 96.83374519 -234.09043714 96.83374519 -235.18505859 98.13037109 C-236.51376464 98.35640342 -237.85248278 98.52442622 -239.19287109 98.66552734 C-240.01529297 98.75253906 -240.83771484 98.83955078 -241.68505859 98.92919922 C-242.55130859 99.01621094 -243.41755859 99.10322266 -244.31005859 99.19287109 C-245.57462891 99.32918945 -245.57462891 99.32918945 -246.86474609 99.46826172 C-251.66720326 99.96416762 -256.35776767 100.22848676 -261.18505859 100.13037109 C-261.32943359 100.91412109 -261.47380859 101.69787109 -261.62255859 102.50537109 C-262.18505859 105.13037109 -262.18505859 105.13037109 -263.18505859 107.13037109 C-263.84505859 107.13037109 -264.50505859 107.13037109 -265.18505859 107.13037109 C-265.51505859 108.12037109 -265.84505859 109.11037109 -266.18505859 110.13037109 C-266.84505859 110.13037109 -267.50505859 110.13037109 -268.18505859 110.13037109 C-268.32943359 110.72849609 -268.47380859 111.32662109 -268.62255859 111.94287109 C-269.07230249 113.69187514 -269.613982 115.41714132 -270.18505859 117.13037109 C-270.84505859 117.46037109 -271.50505859 117.79037109 -272.18505859 118.13037109 C-272.51505859 119.12037109 -272.84505859 120.11037109 -273.18505859 121.13037109 C-273.84505859 121.46037109 -274.50505859 121.79037109 -275.18505859 122.13037109 C-275.90665284 123.77400243 -276.5785728 125.44087495 -277.18505859 127.13037109 C-277.84505859 127.13037109 -278.50505859 127.13037109 -279.18505859 127.13037109 C-279.18505859 128.12037109 -279.18505859 129.11037109 -279.18505859 130.13037109 C-284.79505859 130.13037109 -290.40505859 130.13037109 -296.18505859 130.13037109 C-296.18505859 129.47037109 -296.18505859 128.81037109 -296.18505859 128.13037109 C-296.97525391 128.14197266 -297.76544922 128.15357422 -298.57958984 128.16552734 C-308.81304939 128.24739502 -318.97281187 127.74005747 -329.18505859 127.13037109 C-329.18505859 126.47037109 -329.18505859 125.81037109 -329.18505859 125.13037109 C-341.39505859 125.13037109 -353.60505859 125.13037109 -366.18505859 125.13037109 C-366.18505859 125.79037109 -366.18505859 126.45037109 -366.18505859 127.13037109 C-367.14919678 127.18572021 -368.11333496 127.24106934 -369.10668945 127.2980957 C-372.67207917 127.50400737 -376.23708346 127.71602893 -379.80200195 127.92993164 C-381.34715052 128.02177898 -382.8923995 128.11195246 -384.43774414 128.20043945 C-386.65458033 128.3276641 -388.87098974 128.46083671 -391.08740234 128.59521484 C-391.782202 128.63380112 -392.47700165 128.67238739 -393.19285583 128.71214294 C-396.47453136 128.65809756 -396.47453136 128.65809756 -399.18505859 130.13037109 C-400.52773272 130.21668984 -401.87480181 130.23743583 -403.22021484 130.22802734 C-404.02910156 130.22480469 -404.83798828 130.22158203 -405.67138672 130.21826172 C-406.52152344 130.20988281 -407.37166016 130.20150391 -408.24755859 130.19287109 C-409.1015625 130.18835938 -409.95556641 130.18384766 -410.83544922 130.17919922 C-412.95201523 130.16737483 -415.06854544 130.14943878 -417.18505859 130.13037109 C-417.51505859 128.48037109 -417.84505859 126.83037109 -418.18505859 125.13037109 C-419.17505859 124.80037109 -420.16505859 124.47037109 -421.18505859 124.13037109 C-421.51505859 123.14037109 -421.84505859 122.15037109 -422.18505859 121.13037109 C-422.61818359 120.71787109 -423.05130859 120.30537109 -423.49755859 119.88037109 C-425.13974228 118.17736579 -426.05526159 116.69084379 -427.18505859 114.63037109 C-428.61115948 112.04386872 -429.99164754 110.13305075 -432.18505859 108.13037109 C-435.18505859 104.46370443 -435.18505859 104.46370443 -435.18505859 102.13037109 C-437.49505859 102.13037109 -439.80505859 102.13037109 -442.18505859 102.13037109 C-442.18505859 101.47037109 -442.18505859 100.81037109 -442.18505859 100.13037109 C-443.38001953 100.06978516 -444.57498047 100.00919922 -445.80615234 99.94677734 C-468.55369389 98.76173579 -468.55369389 98.76173579 -470.18505859 97.13037109 C-471.58492334 96.91660596 -472.99367542 96.76014506 -474.40380859 96.63037109 C-475.25330078 96.54787109 -476.10279297 96.46537109 -476.97802734 96.38037109 C-477.87134766 96.29787109 -478.76466797 96.21537109 -479.68505859 96.13037109 C-481.44585432 95.96775792 -483.20630042 95.80129753 -484.96630859 95.63037109 C-485.75070312 95.55818359 -486.53509766 95.48599609 -487.34326172 95.41162109 C-489.18505859 95.13037109 -489.18505859 95.13037109 -490.18505859 94.13037109 C-492.03793361 94.05810608 -493.89339737 94.0465589 -495.74755859 94.06787109 C-496.75947266 94.07689453 -497.77138672 94.08591797 -498.81396484 94.09521484 C-499.59642578 94.10681641 -500.37888672 94.11841797 -501.18505859 94.13037109 C-501.18505859 93.47037109 -501.18505859 92.81037109 -501.18505859 92.13037109 C-501.77931641 92.14197266 -502.37357422 92.15357422 -502.98583984 92.16552734 C-509.44401372 92.23583406 -515.76495472 91.81388025 -522.18505859 91.13037109 C-522.18505859 90.47037109 -522.18505859 89.81037109 -522.18505859 89.13037109 C-523.30992676 89.14668579 -523.30992676 89.14668579 -524.45751953 89.16333008 C-532.78570625 89.22979858 -541.05048353 88.8857247 -549.35546875 88.33081055 C-551.47407341 88.19028324 -553.59314291 88.05943981 -555.71240234 87.92919922 C-557.06269967 87.84187744 -558.41296175 87.75400853 -559.76318359 87.66552734 C-560.97393555 87.5869751 -562.1846875 87.50842285 -563.43212891 87.42749023 C-566.18505859 87.13037109 -566.18505859 87.13037109 -567.18505859 86.13037109 C-570.06584701 85.89863605 -572.92808497 85.72654311 -575.81396484 85.59521484 C-576.67819565 85.5522377 -577.54242645 85.50926056 -578.43284607 85.46498108 C-581.20422111 85.32818697 -583.97586161 85.19796284 -586.74755859 85.06787109 C-588.62192862 84.97650546 -590.49627796 84.88471422 -592.37060547 84.79248047 C-596.97519721 84.5668307 -601.58003748 84.34707426 -606.18505859 84.13037109 C-606.18505859 83.47037109 -606.18505859 82.81037109 -606.18505859 82.13037109 C-606.77709579 82.13560791 -607.369133 82.14084473 -607.97911072 82.14624023 C-625.57753217 82.2785647 -643.12946829 81.83885073 -660.71539307 81.20324707 C-664.16936248 81.07938344 -667.62350702 80.96060303 -671.07763672 80.84130859 C-677.78028326 80.60911408 -684.48273115 80.37159768 -691.18505859 80.13037109 C-691.18505859 79.47037109 -691.18505859 78.81037109 -691.18505859 78.13037109 C-742.99505859 78.13037109 -794.80505859 78.13037109 -848.18505859 78.13037109 C-848.18505859 75.82037109 -848.18505859 73.51037109 -848.18505859 71.13037109 C-847.52505859 71.13037109 -846.86505859 71.13037109 -846.18505859 71.13037109 C-845.78287109 70.04755859 -845.78287109 70.04755859 -845.37255859 68.94287109 C-844.18604498 66.13270726 -842.91020221 63.64620553 -841.18505859 61.13037109 C-840.52505859 61.13037109 -839.86505859 61.13037109 -839.18505859 61.13037109 C-839.06130859 60.49099609 -838.93755859 59.85162109 -838.81005859 59.19287109 C-838.60380859 58.51224609 -838.39755859 57.83162109 -838.18505859 57.13037109 C-837.19505859 56.63537109 -837.19505859 56.63537109 -836.18505859 56.13037109 C-835.46346435 54.48673976 -834.79154439 52.81986723 -834.18505859 51.13037109 C-833.52505859 51.13037109 -832.86505859 51.13037109 -832.18505859 51.13037109 C-831.78287109 49.80005859 -831.78287109 49.80005859 -831.37255859 48.44287109 C-829.7257032 43.84901131 -827.70195074 40.48740451 -824.18505859 37.13037109 C-823.85505859 36.47037109 -823.52505859 35.81037109 -823.18505859 35.13037109 C-822.52505859 35.13037109 -821.86505859 35.13037109 -821.18505859 35.13037109 C-820.91693359 34.40849609 -820.64880859 33.68662109 -820.37255859 32.94287109 C-817.31181916 25.69375138 -817.31181916 25.69375138 -814.18505859 24.13037109 C-813.69005859 22.64537109 -813.69005859 22.64537109 -813.18505859 21.13037109 C-812.52505859 21.13037109 -811.86505859 21.13037109 -811.18505859 21.13037109 C-810.89630859 20.16099609 -810.60755859 19.19162109 -810.31005859 18.19287109 C-809.18505859 15.13037109 -809.18505859 15.13037109 -807.18505859 14.13037109 C-806.85505859 13.14037109 -806.52505859 12.15037109 -806.18505859 11.13037109 C-804.37255859 8.94287109 -804.37255859 8.94287109 -802.18505859 7.13037109 C-800.86505859 7.13037109 -799.54505859 7.13037109 -798.18505859 7.13037109 C-798.18505859 6.47037109 -798.18505859 5.81037109 -798.18505859 5.13037109 C-778.79770129 3.58921965 -759.64301934 2.83548477 -740.18505859 3.13037109 C-740.18505859 2.47037109 -740.18505859 1.81037109 -740.18505859 1.13037109 C-725.07781168 1.1070414 -709.97056616 1.08939157 -694.86330509 1.07855892 C-687.84921225 1.07339611 -680.83513059 1.06635371 -673.82104492 1.05493164 C-667.05837792 1.04392422 -660.29572495 1.0380949 -653.53304863 1.03549385 C-650.94653579 1.03363906 -648.36002362 1.03001743 -645.7735157 1.02464104 C-642.16467004 1.01743458 -638.55587312 1.01637998 -634.94702148 1.0168457 C-633.86593109 1.01325043 -632.7848407 1.00965515 -631.67098999 1.00595093 C-630.69357346 1.00732559 -629.71615692 1.00870026 -628.7091217 1.01011658 C-627.85461961 1.00919478 -627.00011751 1.00827299 -626.11972141 1.00732327 C-624.18505859 1.13037109 -624.18505859 1.13037109 -623.18505859 2.13037109 C-620.39509553 2.35058606 -617.62441775 2.5104075 -614.82958984 2.63037109 C-613.54975471 2.6912793 -613.54975471 2.6912793 -612.24406433 2.75341797 C-609.49541618 2.88352335 -606.74652839 3.00726495 -603.99755859 3.13037109 C-600.4206226 3.29466563 -596.84382195 3.46169896 -593.26708984 3.63037109 C-591.9685759 3.69115845 -591.9685759 3.69115845 -590.64382935 3.75317383 C-583.48123101 4.09683836 -576.33405016 4.5672579 -569.18505859 5.13037109 C-569.18505859 5.79037109 -569.18505859 6.45037109 -569.18505859 7.13037109 C-568.30205078 7.11876953 -567.41904297 7.10716797 -566.50927734 7.09521484 C-558.99935669 7.03874927 -551.6475573 7.2775141 -544.18505859 8.13037109 C-544.18505859 8.79037109 -544.18505859 9.45037109 -544.18505859 10.13037109 C-543.59982422 10.10716797 -543.01458984 10.08396484 -542.41162109 10.06005859 C-536.0613668 9.92656976 -529.86432932 10.37406379 -523.56005859 11.06787109 C-522.3508374 11.19814697 -522.3508374 11.19814697 -521.1171875 11.33105469 C-515.31298923 12.00244046 -515.31298923 12.00244046 -514.18505859 13.13037109 C-511.51773452 13.50473237 -508.86131204 13.83607518 -506.18505859 14.13037109 C-498.32019373 14.99523596 -498.32019373 14.99523596 -497.18505859 16.13037109 C-496.48380859 16.10974609 -495.78255859 16.08912109 -495.06005859 16.06787109 C-491.51691577 16.14489594 -488.57495437 17.11934955 -485.18505859 18.13037109 C-483.19017625 18.49307697 -481.19127749 18.83677808 -479.18505859 19.13037109 C-479.18505859 19.79037109 -479.18505859 20.45037109 -479.18505859 21.13037109 C-478.55341797 21.15615234 -477.92177734 21.18193359 -477.27099609 21.20849609 C-469.20406854 21.71994395 -461.87738158 23.71599235 -454.18505859 26.13037109 C-454.18505859 26.79037109 -454.18505859 27.45037109 -454.18505859 28.13037109 C-452.92693359 28.27474609 -451.66880859 28.41912109 -450.37255859 28.56787109 C-447.75838737 28.86785796 -445.71065967 29.28850407 -443.18505859 30.13037109 C-443.18505859 30.79037109 -443.18505859 31.45037109 -443.18505859 32.13037109 C-440.87505859 32.46037109 -438.56505859 32.79037109 -436.18505859 33.13037109 C-436.18505859 33.79037109 -436.18505859 34.45037109 -436.18505859 35.13037109 C-435.23630859 35.27474609 -434.28755859 35.41912109 -433.31005859 35.56787109 C-430.18505859 36.13037109 -430.18505859 36.13037109 -428.18505859 37.13037109 C-428.18505859 37.79037109 -428.18505859 38.45037109 -428.18505859 39.13037109 C-425.87505859 39.79037109 -423.56505859 40.45037109 -421.18505859 41.13037109 C-421.18505859 41.79037109 -421.18505859 42.45037109 -421.18505859 43.13037109 C-420.19505859 43.46037109 -419.20505859 43.79037109 -418.18505859 44.13037109 C-418.18505859 44.79037109 -418.18505859 45.45037109 -418.18505859 46.13037109 C-417.62818359 46.21287109 -417.07130859 46.29537109 -416.49755859 46.38037109 C-412.21664911 47.76877417 -409.63820982 50.45064425 -407.18505859 54.13037109 C-407.18505859 55.12037109 -407.18505859 56.11037109 -407.18505859 57.13037109 C-406.19505859 57.46037109 -405.20505859 57.79037109 -404.18505859 58.13037109 C-404.18505859 59.12037109 -404.18505859 60.11037109 -404.18505859 61.13037109 C-403.52505859 61.13037109 -402.86505859 61.13037109 -402.18505859 61.13037109 C-400.42043176 64.21846805 -400.18505859 65.36349245 -400.18505859 69.13037109 C-399.52505859 69.13037109 -398.86505859 69.13037109 -398.18505859 69.13037109 C-397.85505859 69.79037109 -397.52505859 70.45037109 -397.18505859 71.13037109 C-396.04037109 69.95474609 -396.04037109 69.95474609 -394.87255859 68.75537109 C-390.13743955 64.13037109 -390.13743955 64.13037109 -386.18505859 64.13037109 C-386.18505859 63.47037109 -386.18505859 62.81037109 -386.18505859 62.13037109 C-382.81408476 60.6321605 -380.9806374 60.13037109 -377.18505859 60.13037109 C-377.18505859 59.47037109 -377.18505859 58.81037109 -377.18505859 58.13037109 C-371.24505859 57.63537109 -371.24505859 57.63537109 -365.18505859 57.13037109 C-365.18505859 56.47037109 -365.18505859 55.81037109 -365.18505859 55.13037109 C-353.43313578 53.81151803 -341.93698141 53.81151803 -330.18505859 55.13037109 C-330.18505859 55.79037109 -330.18505859 56.45037109 -330.18505859 57.13037109 C-329.11255859 57.10974609 -328.04005859 57.08912109 -326.93505859 57.06787109 C-324.03715436 57.1161695 -321.89893719 57.26192994 -319.18505859 58.13037109 C-319.18505859 58.79037109 -319.18505859 59.45037109 -319.18505859 60.13037109 C-318.09193359 60.27474609 -316.99880859 60.41912109 -315.87255859 60.56787109 C-312.18505859 61.13037109 -312.18505859 61.13037109 -309.18505859 62.13037109 C-308.85505859 62.79037109 -308.52505859 63.45037109 -308.18505859 64.13037109 C-307.19505859 64.46037109 -306.20505859 64.79037109 -305.18505859 65.13037109 C-302.99755859 67.06787109 -302.99755859 67.06787109 -301.18505859 69.13037109 C-301.18505859 69.79037109 -301.18505859 70.45037109 -301.18505859 71.13037109 C-300.52505859 71.13037109 -299.86505859 71.13037109 -299.18505859 71.13037109 C-299.18505859 69.81037109 -299.18505859 68.49037109 -299.18505859 67.13037109 C-298.52505859 67.13037109 -297.86505859 67.13037109 -297.18505859 67.13037109 C-296.99943359 65.92380859 -296.99943359 65.92380859 -296.81005859 64.69287109 C-296.60380859 63.84724609 -296.39755859 63.00162109 -296.18505859 62.13037109 C-295.52505859 61.80037109 -294.86505859 61.47037109 -294.18505859 61.13037109 C-293.89630859 60.53224609 -293.60755859 59.93412109 -293.31005859 59.31787109 C-291.96975598 56.71172713 -290.38319328 55.05373894 -288.18505859 53.13037109 C-287.52505859 53.13037109 -286.86505859 53.13037109 -286.18505859 53.13037109 C-285.85505859 52.14037109 -285.52505859 51.15037109 -285.18505859 50.13037109 C-283.24755859 47.94287109 -283.24755859 47.94287109 -281.18505859 46.13037109 C-280.52505859 46.13037109 -279.86505859 46.13037109 -279.18505859 46.13037109 C-279.18505859 45.47037109 -279.18505859 44.81037109 -279.18505859 44.13037109 C-271.75648717 39.70179967 -271.75648717 39.70179967 -268.18505859 39.13037109 C-268.18505859 38.47037109 -268.18505859 37.81037109 -268.18505859 37.13037109 C-264.22505859 36.14037109 -264.22505859 36.14037109 -260.18505859 35.13037109 C-260.18505859 34.47037109 -260.18505859 33.81037109 -260.18505859 33.13037109 C-257.21505859 32.63537109 -257.21505859 32.63537109 -254.18505859 32.13037109 C-254.18505859 31.47037109 -254.18505859 30.81037109 -254.18505859 30.13037109 C-250.30821772 28.93749698 -247.26883936 28.13037109 -243.18505859 28.13037109 C-243.18505859 27.47037109 -243.18505859 26.81037109 -243.18505859 26.13037109 C-234.83906802 23.51082661 -226.94765861 21.48802824 -218.18505859 21.13037109 C-218.18505859 20.47037109 -218.18505859 19.81037109 -218.18505859 19.13037109 C-217.33041016 18.99759766 -216.47576172 18.86482422 -215.59521484 18.72802734 C-214.49048828 18.55142578 -213.38576172 18.37482422 -212.24755859 18.19287109 C-211.14541016 18.01884766 -210.04326172 17.84482422 -208.90771484 17.66552734 C-206.28078931 17.41191974 -206.28078931 17.41191974 -205.18505859 16.13037109 C-203.42112734 15.84436866 -201.64786823 15.61540177 -199.87255859 15.41162109 C-198.25994141 15.22019531 -198.25994141 15.22019531 -196.61474609 15.02490234 C-194.32828776 14.76188151 -192.04182943 14.49886068 -189.75537109 14.23583984 C-188.14275391 14.04441406 -188.14275391 14.04441406 -186.49755859 13.84912109 C-185.50369141 13.73503906 -184.50982422 13.62095703 -183.48583984 13.50341797 C-181.22708545 13.36733785 -181.22708545 13.36733785 -180.18505859 12.13037109 C-177.06157848 11.61213315 -173.89826036 11.3723412 -170.74755859 11.06787109 C-169.88195312 10.97699219 -169.01634766 10.88611328 -168.12451172 10.79248047 C-162.12658271 10.19849346 -156.21034845 10.02102654 -150.18505859 10.13037109 C-150.18505859 9.47037109 -150.18505859 8.81037109 -150.18505859 8.13037109 C-141.82885903 7.37561758 -133.57510575 6.99431628 -125.18505859 7.13037109 C-125.18505859 6.47037109 -125.18505859 5.81037109 -125.18505859 5.13037109 C-107.48898641 3.82903662 -89.94070677 2.79500733 -72.18505859 3.13037109 C-72.18505859 2.47037109 -72.18505859 1.81037109 -72.18505859 1.13037109 C-48.1192647 0.23900052 -24.08103623 -0.02927304 0 0 Z " fill="currentColor" transform="translate(848.18505859375,581.86962890625)"/>
<path d="M0 0 C19.14 0 38.28 0 58 0 C58 0.66 58 1.32 58 2 C58.65742187 1.97679687 59.31484375 1.95359375 59.9921875 1.9296875 C69.44116292 1.75043864 78.64259198 2.83552256 88 4 C88 4.66 88 5.32 88 6 C89.49853516 6.09087891 89.49853516 6.09087891 91.02734375 6.18359375 C92.96287109 6.30927734 92.96287109 6.30927734 94.9375 6.4375 C96.86916016 6.55931641 96.86916016 6.55931641 98.83984375 6.68359375 C102 7 102 7 103 8 C103.70125 7.979375 104.4025 7.95875 105.125 7.9375 C108.67020998 8.01456978 111.62106612 8.95560225 115 10 C116.33130115 10.34135927 117.66358148 10.67925956 119 11 C119 11.66 119 12.32 119 13 C119.6290625 13.03738281 120.258125 13.07476563 120.90625 13.11328125 C126.83800191 13.56888268 131.51164028 14.7289546 137 17 C138.32796291 17.35412344 139.6603318 17.69311565 141 18 C141 18.66 141 19.32 141 20 C142.60875 20.2165625 142.60875 20.2165625 144.25 20.4375 C146.91662949 20.83749442 149.41399729 21.27591924 152 22 C152 22.66 152 23.32 152 24 C153.98 24.33 155.96 24.66 158 25 C158 25.66 158 26.32 158 27 C160.97 27.66 163.94 28.32 167 29 C167 29.66 167 30.32 167 31 C168.4540625 31.185625 168.4540625 31.185625 169.9375 31.375 C170.948125 31.58125 171.95875 31.7875 173 32 C173.33 32.66 173.66 33.32 174 34 C176.3140622 34.73075648 178.64828869 35.40138258 181 36 C181 36.66 181 37.32 181 38 C182.65 38 184.3 38 186 38 C186.33 39.32 186.66 40.64 187 42 C175.1733651 42.11607384 163.37831828 41.97471963 151.55764771 41.57119751 C109.62067945 40.16289577 67.54136058 40.58468582 25.625 42.5 C24.42895142 42.55305298 24.42895142 42.55305298 23.20874023 42.60717773 C19.81228898 42.5112989 19.81228898 42.5112989 17 44 C14.64041276 44.21864901 12.30262346 44.37878226 9.9375 44.5 C9.23101318 44.54060547 8.52452637 44.58121094 7.79663086 44.62304688 C4.76225356 44.79730156 1.72730753 44.96060289 -1.30761719 45.125 C-3.51780629 45.24626198 -5.72763515 45.37298758 -7.9375 45.5 C-8.6291626 45.53544922 -9.3208252 45.57089844 -10.03344727 45.60742188 C-13.30139612 45.53693509 -13.30139612 45.53693509 -16 47 C-17.67100755 47.22839355 -19.35052801 47.39514395 -21.03125 47.53515625 C-22.58972656 47.66567383 -22.58972656 47.66567383 -24.1796875 47.79882812 C-25.82324219 47.9293457 -25.82324219 47.9293457 -27.5 48.0625 C-28.56476563 48.15337891 -29.62953125 48.24425781 -30.7265625 48.33789062 C-36.84125768 48.83743268 -42.86550783 49.09665691 -49 49 C-49 49.66 -49 50.32 -49 51 C-55.71162938 51.88021369 -62.23405981 52.11381955 -69 52 C-69 52.66 -69 53.32 -69 54 C-71.35344806 54.33923576 -73.7075484 54.67150534 -76.0625 55 C-76.71927734 55.09539063 -77.37605469 55.19078125 -78.05273438 55.2890625 C-82.40138763 55.88887674 -86.61329071 56.09127093 -91 56 C-91 56.66 -91 57.32 -91 58 C-92.41152344 58.18175781 -92.41152344 58.18175781 -93.8515625 58.3671875 C-95.71941406 58.61855469 -95.71941406 58.61855469 -97.625 58.875 C-99.46964844 59.11863281 -99.46964844 59.11863281 -101.3515625 59.3671875 C-104.94577292 59.89509072 -104.94577292 59.89509072 -108.0625 61.03125 C-111.23282232 62.07678183 -114.05031961 62.40335464 -117.375 62.625 C-118.43460938 62.69976563 -119.49421875 62.77453125 -120.5859375 62.8515625 C-121.38257813 62.90054688 -122.17921875 62.94953125 -123 63 C-123 63.66 -123 64.32 -123 65 C-124.09699219 65.19335938 -125.19398438 65.38671875 -126.32421875 65.5859375 C-127.77869582 65.84868175 -129.23312017 66.11171801 -130.6875 66.375 C-131.40873047 66.50132812 -132.12996094 66.62765625 -132.87304688 66.7578125 C-136.81874249 67.4784875 -140.28662622 68.43930667 -144 70 C-146.8125 70.125 -146.8125 70.125 -149 70 C-149 70.66 -149 71.32 -149 72 C-154.38027025 73.19088986 -159.45291384 74.2919519 -165 74 C-165 74.66 -165 75.32 -165 76 C-168.465 76.495 -168.465 76.495 -172 77 C-172 77.66 -172 78.32 -172 79 C-173.65 79 -175.3 79 -177 79 C-177.495 76.525 -177.495 76.525 -178 74 C-177.34 74 -176.68 74 -176 74 C-176 73.34 -176 72.68 -176 72 C-173.35261084 70.5393715 -172.10551666 70 -169 70 C-168.67 69.01 -168.34 68.02 -168 67 C-165.99878825 64.63493157 -165.03200339 64.0106678 -162 63 C-160.86170097 61.82822159 -159.72528291 60.65451632 -158.6015625 59.46875 C-155.95858042 57.04494205 -152.92080569 55.23341947 -149.890625 53.33203125 C-147.86772381 52.13011784 -147.86772381 52.13011784 -147 50 C-145.515 49.505 -145.515 49.505 -144 49 C-143.505 48.01 -143.505 48.01 -143 47 C-140.37418862 45.42451317 -139.12900213 45 -136 45 C-136 44.34 -136 43.68 -136 43 C-135.030625 42.71125 -134.06125 42.4225 -133.0625 42.125 C-129.89335797 41.35785318 -129.89335797 41.35785318 -129 39 C-125.9375 38.375 -125.9375 38.375 -123 38 C-123 37.34 -123 36.68 -123 36 C-121.02 35.505 -121.02 35.505 -119 35 C-119 34.34 -119 33.68 -119 33 C-116.09399739 31.74335022 -114.20395416 31 -111 31 C-111 30.34 -111 29.68 -111 29 C-108.89828133 28.1605118 -106.79353375 27.32860344 -104.6875 26.5 C-103.51574219 26.0359375 -102.34398437 25.571875 -101.13671875 25.09375 C-98 24 -98 24 -95 24 C-95 23.34 -95 22.68 -95 22 C-89.555 21.01 -89.555 21.01 -84 20 C-84 19.34 -84 18.68 -84 18 C-80.04 17.505 -80.04 17.505 -76 17 C-76 16.34 -76 15.68 -76 15 C-66.58997722 12.70387244 -66.58997722 12.70387244 -62 13 C-62 12.34 -62 11.68 -62 11 C-61.27554688 10.87882813 -60.55109375 10.75765625 -59.8046875 10.6328125 C-58.83789062 10.46523438 -57.87109375 10.29765625 -56.875 10.125 C-55.44800781 9.88136719 -55.44800781 9.88136719 -53.9921875 9.6328125 C-50.97330401 9.06148325 -50.97330401 9.06148325 -48.0625 7.96875 C-44.6868599 6.90094548 -41.6537782 6.59104764 -38.125 6.375 C-36.97257813 6.30023437 -35.82015625 6.22546875 -34.6328125 6.1484375 C-33.76398438 6.09945312 -32.89515625 6.05046875 -32 6 C-32 5.34 -32 4.68 -32 4 C-21.28712612 2.73300752 -10.8029818 1.65089107 0 2 C0 1.34 0 0.68 0 0 Z " fill="currentColor" transform="translate(731,515)"/>
<path d="M0 0 C2.82412504 0.01088973 5.64820197 0.01046587 8.4723444 0.00986195 C11.24107679 0.01013633 14.00977921 0.01565776 16.77850151 0.02286339 C18.69527199 0.02748006 20.61204858 0.02930361 22.52882385 0.03102112 C44.99866307 0.15155614 44.99866307 0.15155614 47.04272461 2.19561768 C48.03272461 2.19561768 49.02272461 2.19561768 50.04272461 2.19561768 C51.03272461 2.19561768 52.02272461 2.19561768 53.04272461 2.19561768 C53.37272461 2.52561768 53.70272461 2.85561768 54.04272461 3.19561768 C56.56468428 3.59504944 59.07236117 3.94641616 61.60522461 4.25811768 C62.31614258 4.34899658 63.02706055 4.43987549 63.75952148 4.5335083 C65.52010864 4.7580127 67.28135938 4.97730165 69.04272461 5.19561768 C69.04272461 5.85561768 69.04272461 6.51561768 69.04272461 7.19561768 C69.8509668 7.25620361 70.65920898 7.31678955 71.49194336 7.37921143 C72.56057617 7.46300049 73.62920898 7.54678955 74.73022461 7.63311768 C76.31383789 7.75493408 76.31383789 7.75493408 77.92944336 7.87921143 C80.69358758 8.16013449 83.33218202 8.59718619 86.04272461 9.19561768 C86.04272461 9.85561768 86.04272461 10.51561768 86.04272461 11.19561768 C88.68272461 11.52561768 91.32272461 11.85561768 94.04272461 12.19561768 C94.04272461 12.85561768 94.04272461 13.51561768 94.04272461 14.19561768 C95.30084961 14.33999268 96.55897461 14.48436768 97.85522461 14.63311768 C100.46939584 14.93310454 102.51712353 15.35375065 105.04272461 16.19561768 C105.04272461 16.85561768 105.04272461 17.51561768 105.04272461 18.19561768 C107.02272461 18.52561768 109.00272461 18.85561768 111.04272461 19.19561768 C111.04272461 19.85561768 111.04272461 20.51561768 111.04272461 21.19561768 C112.13584961 21.33999268 113.22897461 21.48436768 114.35522461 21.63311768 C118.04272461 22.19561768 118.04272461 22.19561768 121.04272461 23.19561768 C121.04272461 23.85561768 121.04272461 24.51561768 121.04272461 25.19561768 C121.80584961 25.33999268 122.56897461 25.48436768 123.35522461 25.63311768 C126.04272461 26.19561768 126.04272461 26.19561768 129.04272461 27.19561768 C129.04272461 27.85561768 129.04272461 28.51561768 129.04272461 29.19561768 C131.02272461 29.52561768 133.00272461 29.85561768 135.04272461 30.19561768 C135.04272461 30.85561768 135.04272461 31.51561768 135.04272461 32.19561768 C135.90897461 32.46374268 136.77522461 32.73186768 137.66772461 33.00811768 C140.96064425 34.16673755 143.95400335 35.57771607 147.04272461 37.19561768 C147.04272461 37.85561768 147.04272461 38.51561768 147.04272461 39.19561768 C149.02272461 39.85561768 151.00272461 40.51561768 153.04272461 41.19561768 C153.04272461 41.85561768 153.04272461 42.51561768 153.04272461 43.19561768 C154.36272461 43.52561768 155.68272461 43.85561768 157.04272461 44.19561768 C157.04272461 44.85561768 157.04272461 45.51561768 157.04272461 46.19561768 C158.69272461 46.85561768 160.34272461 47.51561768 162.04272461 48.19561768 C162.04272461 48.85561768 162.04272461 49.51561768 162.04272461 50.19561768 C162.78522461 50.27811768 163.52772461 50.36061768 164.29272461 50.44561768 C167.58575056 51.34371566 168.90249249 52.57977841 171.04272461 55.19561768 C171.04272461 55.85561768 171.04272461 56.51561768 171.04272461 57.19561768 C171.59959961 57.23686768 172.15647461 57.27811768 172.73022461 57.32061768 C175.61812543 58.41333691 176.83024099 60.18821572 178.68725586 62.58233643 C180.82804934 65.13031253 183.48721625 67.07508947 186.04272461 69.19561768 C187.39009434 70.85095763 188.72606797 72.51574541 190.04272461 74.19561768 C191.03272461 74.85561768 192.02272461 75.51561768 193.04272461 76.19561768 C193.04272461 76.85561768 193.04272461 77.51561768 193.04272461 78.19561768 C193.70272461 78.19561768 194.36272461 78.19561768 195.04272461 78.19561768 C195.04272461 79.51561768 195.04272461 80.83561768 195.04272461 82.19561768 C188.80860495 82.66611727 184.35373904 81.47815057 178.55834961 79.16827393 C176.3893207 78.32962766 174.30870825 77.69858133 172.04272461 77.19561768 C172.04272461 76.53561768 172.04272461 75.87561768 172.04272461 75.19561768 C170.74334961 75.09249268 169.44397461 74.98936768 168.10522461 74.88311768 C163.85236723 74.42026727 160.09578807 73.37524006 156.08569336 71.91436768 C154.08896339 71.21188524 152.10268779 70.67704727 150.04272461 70.19561768 C150.04272461 69.53561768 150.04272461 68.87561768 150.04272461 68.19561768 C149.30666992 68.13503174 148.57061523 68.0744458 147.81225586 68.01202393 C146.34852539 67.88634033 146.34852539 67.88634033 144.85522461 67.75811768 C143.89229492 67.67690674 142.92936523 67.5956958 141.93725586 67.51202393 C139.25622859 67.21895617 136.67642601 66.76858014 134.04272461 66.19561768 C134.04272461 65.53561768 134.04272461 64.87561768 134.04272461 64.19561768 C130.41272461 63.86561768 126.78272461 63.53561768 123.04272461 63.19561768 C123.04272461 62.53561768 123.04272461 61.87561768 123.04272461 61.19561768 C122.30666992 61.13503174 121.57061523 61.0744458 120.81225586 61.01202393 C119.83643555 60.92823486 118.86061523 60.8444458 117.85522461 60.75811768 C116.89229492 60.67690674 115.92936523 60.5956958 114.93725586 60.51202393 C112.25622859 60.21895617 109.67642601 59.76858014 107.04272461 59.19561768 C107.04272461 58.53561768 107.04272461 57.87561768 107.04272461 57.19561768 C106.18291992 57.15823486 105.32311523 57.12085205 104.43725586 57.08233643 C97.01723051 56.66966326 90.11118513 55.70322191 82.90600586 53.89093018 C80.5232739 53.31231314 78.22144087 52.87729875 75.79272461 52.57061768 C73.04272461 52.19561768 73.04272461 52.19561768 72.04272461 51.19561768 C70.48684718 50.89918032 68.92037274 50.65780874 67.35131836 50.44171143 C66.40708008 50.30958252 65.4628418 50.17745361 64.48999023 50.0413208 C63.49676758 49.90661377 62.50354492 49.77190674 61.48022461 49.63311768 C60.48313477 49.49454346 59.48604492 49.35596924 58.45874023 49.2131958 C55.98722745 48.87025862 53.51523916 48.53124313 51.04272461 48.19561768 C51.04272461 47.53561768 51.04272461 46.87561768 51.04272461 46.19561768 C50.41366211 46.20721924 49.78459961 46.2188208 49.13647461 46.23077393 C43.66203373 46.2884864 38.45814655 45.99790241 33.04272461 45.19561768 C33.04272461 44.53561768 33.04272461 43.87561768 33.04272461 43.19561768 C32.21708008 43.23042236 32.21708008 43.23042236 31.37475586 43.26593018 C21.2102446 43.48655523 11.13709535 42.25270816 1.04272461 41.19561768 C1.04272461 40.53561768 1.04272461 39.87561768 1.04272461 39.19561768 C0.15713867 39.20721924 -0.72844727 39.2188208 -1.64086914 39.23077393 C-11.45204741 39.30223932 -21.17037608 38.86644554 -30.95727539 38.19561768 C-30.95727539 37.53561768 -30.95727539 36.87561768 -30.95727539 36.19561768 C-64.94727539 36.19561768 -98.93727539 36.19561768 -133.95727539 36.19561768 C-133.95727539 34.87561768 -133.95727539 33.55561768 -133.95727539 32.19561768 C-133.29727539 32.19561768 -132.63727539 32.19561768 -131.95727539 32.19561768 C-131.62727539 31.20561768 -131.29727539 30.21561768 -130.95727539 29.19561768 C-129.96727539 28.86561768 -128.97727539 28.53561768 -127.95727539 28.19561768 C-127.62727539 27.53561768 -127.29727539 26.87561768 -126.95727539 26.19561768 C-123.89477539 25.57061768 -123.89477539 25.57061768 -120.95727539 25.19561768 C-120.95727539 24.53561768 -120.95727539 23.87561768 -120.95727539 23.19561768 C-118.05127278 21.9389679 -116.16122955 21.19561768 -112.95727539 21.19561768 C-112.95727539 20.53561768 -112.95727539 19.87561768 -112.95727539 19.19561768 C-109.49227539 18.70061768 -109.49227539 18.70061768 -105.95727539 18.19561768 C-105.95727539 17.53561768 -105.95727539 16.87561768 -105.95727539 16.19561768 C-100.51227539 15.20561768 -100.51227539 15.20561768 -94.95727539 14.19561768 C-94.95727539 13.53561768 -94.95727539 12.87561768 -94.95727539 12.19561768 C-91.65727539 11.86561768 -88.35727539 11.53561768 -84.95727539 11.19561768 C-84.95727539 10.53561768 -84.95727539 9.87561768 -84.95727539 9.19561768 C-83.81387695 8.99065674 -82.67047852 8.7856958 -81.49243164 8.57452393 C-80.00150863 8.30259457 -78.51062523 8.03044794 -77.01977539 7.75811768 C-76.2650293 7.62341064 -75.5102832 7.48870361 -74.73266602 7.34991455 C-71.03774365 6.95289733 -71.03774365 6.95289733 -67.95727539 5.19561768 C-64.75191177 4.71631097 -61.54669361 4.32354936 -58.32836914 3.94561768 C-54.84618264 3.79199063 -54.84618264 3.79199063 -51.95727539 2.19561768 C-34.71878299 -0.21298743 -17.36348836 -0.08447048 0 0 Z " fill="currentColor" transform="translate(257.957275390625,520.8043823242188)"/>
</svg>
