<?xml version="1.0" encoding="UTF-8"?>
<svg version="1.1" xmlns="http://www.w3.org/2000/svg" width="1024" height="1024">
<path d="M0 0 C1.2262207 0.16628906 2.45244141 0.33257812 3.71582031 0.50390625 C85.13184227 11.92033104 165.49208853 50.29840063 217 116 C217.90512749 117.10615507 218.81282504 118.21021057 219.72265625 119.3125 C260.6701858 169.14945811 278.5941675 227.78064381 295.62060547 288.90014648 C306.89722279 329.33984426 319.77502413 368.78015893 339.08349609 406.20214844 C340.28421574 408.55752922 341.43086801 410.93866741 342.58496094 413.31713867 C357.47019093 443.74289826 375.10355947 473.32113591 394.23046875 501.2578125 C397.12499483 505.74336948 397.49767898 509.77437066 397 515 C395.6955628 519.65870429 393.52339791 521.56389185 389.5625 524.0625 C387.72522308 525.07300231 385.87026795 526.05194981 384 527 C383.16984375 527.42152344 382.3396875 527.84304688 381.484375 528.27734375 C302.91080053 564.23279523 195.04814444 560.10742122 96.33069611 566.06224823 C94.27278641 566.18251573 92.21497059 566.30428782 90.15716553 566.42633057 C80.10759608 567.01593821 70.0558607 567.53107117 60 568 C58.62163845 568.06488302 58.62163845 568.06488302 57.21543121 568.13107681 C19.03078242 569.9138793 -19.11503515 570.36601125 -57.33235073 570.31498528 C-60.2639041 570.31162416 -63.19545701 570.31039143 -66.1270119 570.3090812 C-108.55368666 570.28817895 -150.8820783 569.87987403 -193.23968506 567.2310791 C-197.1469539 566.99096938 -201.05493334 566.76577957 -204.96337891 566.54589844 C-448.11201985 552.82841707 -448.11201985 552.82841707 -501.125 527 C-501.75857422 526.6920752 -502.39214844 526.38415039 -503.04492188 526.06689453 C-507.88461947 523.49929919 -511.82404965 520.16147456 -513.77734375 514.91015625 C-513.83019531 514.30042969 -513.88304687 513.69070313 -513.9375 513.0625 C-514.00839844 512.45535156 -514.07929687 511.84820313 -514.15234375 511.22265625 C-513.75564141 505.43487085 -511.8489734 501.33262669 -508.1875 496.9375 C-501.77991974 488.71975261 -496.80377003 479.68773215 -491.58154297 470.69091797 C-489.76484997 467.59990374 -487.88319678 464.55490252 -485.98364258 461.5144043 C-477.75787962 448.33366113 -470.40566637 434.65159985 -463 421 C-462.48985352 420.06381836 -461.97970703 419.12763672 -461.45410156 418.16308594 C-455.59547706 407.38437452 -450.23804024 396.4562288 -445.37988281 385.19042969 C-444.37480726 382.86659258 -443.36138546 380.54757216 -442.33886719 378.23144531 C-432.08107212 354.94563733 -423.99860507 331.44864158 -417 307 C-416.72649719 306.04639587 -416.45299438 305.09279175 -416.17120361 304.11029053 C-413.50930116 294.82529635 -410.8616868 285.53625046 -408.22387695 276.24438477 C-392.19189311 219.83707082 -392.19189311 219.83707082 -383 198 C-382.59458984 197.02498535 -382.18917969 196.0499707 -381.77148438 195.04541016 C-373.77058937 175.92327109 -364.96234222 157.49405505 -352.42773438 140.90771484 C-350.78532221 138.71315111 -349.18118165 136.49299739 -347.578125 134.26953125 C-342.07275744 126.66008798 -336.6222012 119.13436062 -330.16015625 112.30078125 C-328.34656119 110.36912213 -326.62234478 108.40113155 -324.8984375 106.390625 C-320.35253063 101.1754714 -315.46297268 96.31707514 -310.5625 91.4375 C-309.65951172 90.53064453 -308.75652344 89.62378906 -307.82617188 88.68945312 C-287.11723453 68.010507 -263.52321133 52.09025005 -238 38 C-236.76878418 37.3184082 -236.76878418 37.3184082 -235.51269531 36.62304688 C-199.06476607 16.57594768 -159.17826841 5.13155137 -118 0 C-116.80665039 -0.15098145 -115.61330078 -0.30196289 -114.38378906 -0.45751953 C-76.75003137 -4.99884905 -37.56412466 -5.20102898 0 0 Z " fill="#000000" transform="translate(570,170)"/>
</svg>
