<?xml version="1.0" encoding="UTF-8"?>
<svg version="1.1" xmlns="http://www.w3.org/2000/svg" width="1024" height="1024">
<path d="M0 0 C11.55 0 23.1 0 35 0 C35 0.66 35 1.32 35 2 C35.66 1.938125 36.32 1.87625 37 1.8125 C43.12558695 2.19534918 48.63250695 5.18206615 54 8 C54 8.66 54 9.32 54 10 C55.98 10.495 55.98 10.495 58 11 C58 11.66 58 12.32 58 13 C59.1446875 13.1546875 59.1446875 13.1546875 60.3125 13.3125 C63.18416484 14.04711194 64.23042094 14.6716065 66 17 C66 17.66 66 18.32 66 19 C66.99 19 67.98 19 69 19 C69 19.66 69 20.32 69 21 C69.66 21 70.32 21 71 21 C72.36363208 22.97946592 73.69418644 24.9819245 75 27 C75.5775 27.556875 76.155 28.11375 76.75 28.6875 C78 30 78 30 78 33 C78.99 33.33 79.98 33.66 81 34 C81 34.99 81 35.98 81 37 C81.66 37 82.32 37 83 37 C83.33 38.98 83.66 40.96 84 43 C84.66 43 85.32 43 86 43 C86.33 44.98 86.66 46.96 87 49 C87.66 49 88.32 49 89 49 C89 51.64 89 54.28 89 57 C90.51350068 56.99861731 90.51350068 56.99861731 92.05757713 56.99720669 C116.67388758 56.97495048 141.29019672 56.95854743 165.90651512 56.94818783 C177.81105279 56.94304411 189.7155838 56.93603829 201.62011719 56.92456055 C212.00302785 56.91455469 222.38593367 56.90813259 232.76884902 56.90591151 C238.26019555 56.90461438 243.75152825 56.90159227 249.24287033 56.89426994 C254.42531013 56.88741636 259.60773058 56.88540178 264.79017448 56.88689232 C266.67898222 56.88662015 268.56779069 56.88467097 270.45659447 56.88079453 C282.34110405 56.85762703 294.14095049 57.20990123 306 58 C306 58.66 306 59.32 306 60 C309.63 60.33 313.26 60.66 317 61 C317 61.66 317 62.32 317 63 C320.63 63.33 324.26 63.66 328 64 C328 64.66 328 65.32 328 66 C328.9075 65.979375 329.815 65.95875 330.75 65.9375 C333.42672588 65.9889755 335.46988052 66.2215017 338 67 C338 67.66 338 68.32 338 69 C338.886875 69.12375 339.77375 69.2475 340.6875 69.375 C343.70387502 69.94412736 346.20326054 70.76614436 349 72 C349 72.66 349 73.32 349 74 C350.98 74.33 352.96 74.66 355 75 C355 75.66 355 76.32 355 77 C358.96 77.495 358.96 77.495 363 78 C363 78.66 363 79.32 363 80 C364.98 80.33 366.96 80.66 369 81 C369 81.66 369 82.32 369 83 C370.98 83.33 372.96 83.66 375 84 C375 84.66 375 85.32 375 86 C375.804375 86.12375 376.60875 86.2475 377.4375 86.375 C378.283125 86.58125 379.12875 86.7875 380 87 C380.33 87.66 380.66 88.32 381 89 C381.99 89.33 382.98 89.66 384 90 C384 90.66 384 91.32 384 92 C384.721875 92.04125 385.44375 92.0825 386.1875 92.125 C390.11213468 93.34599746 391.48057568 95.83456945 394 99 C395.32520503 99.68268138 396.65812182 100.3507041 398 101 C399.36244796 102.64295195 400.69864875 104.30824337 402 106 C402.66 106.33 403.32 106.66 404 107 C404 107.66 404 108.32 404 109 C404.99 109.33 405.98 109.66 407 110 C407 110.66 407 111.32 407 112 C407.99 112.33 408.98 112.66 410 113 C410 113.66 410 114.32 410 115 C410.99 115.33 411.98 115.66 413 116 C413 116.66 413 117.32 413 118 C413.99 118.33 414.98 118.66 416 119 C416 119.66 416 120.32 416 121 C416.66 121 417.32 121 418 121 C418.33 122.32 418.66 123.64 419 125 C419.66 125 420.32 125 421 125 C424.61980085 128.09007389 426.58682778 130.17965738 427 135 C427.66 135 428.32 135 429 135 C429.33 135.99 429.66 136.98 430 138 C430.7734375 138.7425 430.7734375 138.7425 431.5625 139.5 C433 141 433 141 433 144 C433.66 144 434.32 144 435 144 C435.33 144.99 435.66 145.98 436 147 C436.66 147.33 437.32 147.66 438 148 C438.40729228 150.32156597 438.74438677 152.6568787 439 155 C439.66 155 440.32 155 441 155 C441.33 157.31 441.66 159.62 442 162 C442.66 162 443.32 162 444 162 C444.33 163.98 444.66 165.96 445 168 C445.66 168 446.32 168 447 168 C447.33 170.64 447.66 173.28 448 176 C448.66 176 449.32 176 450 176 C450.26554688 176.88042969 450.53109375 177.76085937 450.8046875 178.66796875 C451.15789063 179.82941406 451.51109375 180.99085938 451.875 182.1875 C452.22304688 183.33605469 452.57109375 184.48460937 452.9296875 185.66796875 C453.93059597 188.9316175 453.93059597 188.9316175 455.125 191.75 C456.11786058 194.30307007 456.1551809 196.28433419 456 199 C456.66 199 457.32 199 458 199 C457.979375 199.969375 457.95875 200.93875 457.9375 201.9375 C457.64381501 204.87465895 457.64381501 204.87465895 459 206 C459.07205511 207.68608966 459.08386068 209.37500659 459.0625 211.0625 C459.05347656 211.98160156 459.04445313 212.90070313 459.03515625 213.84765625 C459.01775391 214.91306641 459.01775391 214.91306641 459 216 C459.66 216 460.32 216 461 216 C461.02312883 223.41459942 461.04091785 230.82919111 461.05181217 238.24381924 C461.05703982 241.68640348 461.06413531 245.12896312 461.07543945 248.5715332 C461.08834235 252.52555043 461.09322918 256.47955756 461.09765625 260.43359375 C461.10281754 261.67523788 461.10797882 262.91688202 461.11329651 264.19615173 C461.11337204 265.33725906 461.11344757 266.47836639 461.11352539 267.65405273 C461.115746 268.664431 461.11796661 269.67480927 461.12025452 270.71580505 C461 273 461 273 460 274 C459.60333773 276.18019479 459.25684763 278.3696463 458.9375 280.5625 C458.76089844 281.76003906 458.58429687 282.95757812 458.40234375 284.19140625 C458.26957031 285.11824219 458.13679687 286.04507812 458 287 C457.34 287 456.68 287 456 287 C456.061875 288.5778125 456.061875 288.5778125 456.125 290.1875 C456.00574318 293.82483306 455.45415073 295.74954544 454 299 C453.63128912 300.65919896 453.28718326 302.3247643 453 304 C452.34 304 451.68 304 451 304 C450.67 306.64 450.34 309.28 450 312 C449.34 312 448.68 312 448 312 C447.67 314.31 447.34 316.62 447 319 C446.34 319 445.68 319 445 319 C444.67 321.31 444.34 323.62 444 326 C443.34 326 442.68 326 442 326 C441.67 327.98 441.34 329.96 441 332 C440.34 332 439.68 332 439 332 C438.87625 332.969375 438.7525 333.93875 438.625 334.9375 C438.41875 335.948125 438.2125 336.95875 438 338 C437.01 338.495 437.01 338.495 436 339 C435.67 339.99 435.34 340.98 435 342 C434.34 342 433.68 342 433 342 C432.67 343.65 432.34 345.3 432 347 C431.34 347 430.68 347 430 347 C430 347.99 430 348.98 430 350 C429.01 350.495 429.01 350.495 428 351 C426.95499149 352.61995892 426.95499149 352.61995892 426 354.5 C424.22222222 357.88888889 424.22222222 357.88888889 422 359 C421.67 359.99 421.34 360.98 421 362 C419.5625 363.6875 419.5625 363.6875 418 365 C417.34 365 416.68 365 416 365 C415.67 365.99 415.34 366.98 415 368 C414.34 368 413.68 368 413 368 C412.67 368.99 412.34 369.98 412 371 C411.34 371 410.68 371 410 371 C409.938125 371.7425 409.87625 372.485 409.8125 373.25 C408.73716473 376.8895963 407.03762847 377.79081566 404 380 C403.13375 380.886875 402.2675 381.77375 401.375 382.6875 C399 385 399 385 396 386 C395.67 386.66 395.34 387.32 395 388 C394.34 388 393.68 388 393 388 C393 388.66 393 389.32 393 390 C392.01 390.33 391.02 390.66 390 391 C389.67 391.66 389.34 392.32 389 393 C386.4375 393.625 386.4375 393.625 384 394 C384 394.66 384 395.32 384 396 C383.01 396.33 382.02 396.66 381 397 C380.2575 397.7734375 380.2575 397.7734375 379.5 398.5625 C378 400 378 400 375 400 C375 400.66 375 401.32 375 402 C373.68 402.33 372.36 402.66 371 403 C371 403.66 371 404.32 371 405 C370.31292969 405.26554687 369.62585938 405.53109375 368.91796875 405.8046875 C368.01691406 406.15789062 367.11585938 406.51109375 366.1875 406.875 C365.29417969 407.22304688 364.40085937 407.57109375 363.48046875 407.9296875 C360.82288409 408.98832155 360.82288409 408.98832155 358 411 C357.01 411 356.02 411 355 411 C355 411.66 355 412.32 355 413 C353.02 413.33 351.04 413.66 349 414 C349 414.66 349 415.32 349 416 C347.1291122 416.67812114 345.25305707 417.3419946 343.375 418 C342.33085938 418.37125 341.28671875 418.7425 340.2109375 419.125 C336.98225494 420.00483564 334.32755706 420.15988262 331 420 C331 420.66 331 421.32 331 422 C327.37 422.33 323.74 422.66 320 423 C320 423.66 320 424.32 320 425 C317.03 425.33 314.06 425.66 311 426 C311 426.66 311 427.32 311 428 C308.03 428.33 305.06 428.66 302 429 C302 429.66 302 430.32 302 431 C253.69899164 431.88818496 205.42275521 432.04293395 157.11724703 431.58612982 C149.98757319 431.51888963 142.85785562 431.45694606 135.72813192 431.39525896 C121.15203656 431.26903597 106.57600046 431.13675767 92 431 C92.00056958 432.64988675 92.00056958 432.64988675 92.00115067 434.33310455 C92.01781122 482.78314989 92.03324016 531.2331954 92.04234314 579.6832428 C92.0424812 580.41616826 92.04261925 581.14909373 92.04276149 581.90422906 C92.04575405 597.83072441 92.04852428 613.75721979 92.05106533 629.68371522 C92.05231272 637.49348919 92.05360927 645.30326315 92.05493164 653.11303711 C92.05512778 654.27881827 92.05512778 654.27881827 92.05532788 655.46815057 C92.0595931 680.68210289 92.06710728 705.89605298 92.07629722 731.11000395 C92.08571998 757.00962156 92.09188316 782.90923792 92.09391499 808.80885721 C92.09420317 812.46273121 92.0945288 816.11660521 92.09487724 819.7704792 C92.09494467 820.48965003 92.09501209 821.20882086 92.09508156 821.94978474 C92.09626561 833.55018718 92.10090996 845.15058581 92.10683203 856.75098669 C92.11270512 868.39892221 92.11489029 880.04685301 92.11350138 891.69479006 C92.11285765 898.01172454 92.11387942 904.32864778 92.11920547 910.64558029 C92.12403749 916.41834124 92.12433997 922.1910833 92.12089889 927.96384508 C92.120473 930.06209972 92.1217704 932.16035549 92.12488318 934.25860786 C92.12884383 937.09106882 92.12676548 939.92345978 92.12304783 942.75591946 C92.12567484 943.58755207 92.12830186 944.41918469 92.13100848 945.27601829 C92.1141458 950.8858542 92.1141458 950.8858542 91 952 C90.77486899 953.33802186 90.60639193 954.68573023 90.46484375 956.03515625 C90.37783203 956.84404297 90.29082031 957.65292969 90.20117188 958.48632812 C90.11416016 959.33646484 90.02714844 960.18660156 89.9375 961.0625 C89.84662109 961.91650391 89.75574219 962.77050781 89.66210938 963.65039062 C89.43749278 965.76651535 89.21824773 967.88320894 89 970 C88.34 970 87.68 970 87 970 C86.67 972.64 86.34 975.28 86 978 C85.34 978 84.68 978 84 978 C83.67 980.31 83.34 982.62 83 985 C82.34 985 81.68 985 81 985 C80.87625 985.804375 80.7525 986.60875 80.625 987.4375 C80.315625 988.7059375 80.315625 988.7059375 80 990 C79.34 990.33 78.68 990.66 78 991 C77.67 991.99 77.34 992.98 77 994 C76.34 994 75.68 994 75 994 C74.62875 994.804375 74.62875 994.804375 74.25 995.625 C72.10724864 999.69622758 69.71346013 1004.1777703 66 1007 C63.3125 1007.6875 63.3125 1007.6875 61 1008 C60.67 1008.99 60.34 1009.98 60 1011 C59.34 1011 58.68 1011 58 1011 C58 1011.66 58 1012.32 58 1013 C56.02 1013.33 54.04 1013.66 52 1014 C52 1014.66 52 1015.32 52 1016 C46.375 1019 46.375 1019 43 1019 C43 1019.66 43 1020.32 43 1021 C40.03 1021.33 37.06 1021.66 34 1022 C34 1022.66 34 1023.32 34 1024 C22.78 1024 11.56 1024 0 1024 C0 1023.34 0 1022.68 0 1022 C-2.97 1021.67 -5.94 1021.34 -9 1021 C-9 1020.34 -9 1019.68 -9 1019 C-9.7425 1018.87625 -10.485 1018.7525 -11.25 1018.625 C-13.80141485 1018.04513299 -15.7267573 1017.26291261 -18 1016 C-18 1015.34 -18 1014.68 -18 1014 C-18.99 1013.67 -19.98 1013.34 -21 1013 C-21 1012.34 -21 1011.68 -21 1011 C-21.7425 1010.938125 -22.485 1010.87625 -23.25 1010.8125 C-26.87017367 1009.74290323 -27.77383898 1007.99140387 -30 1005 C-30.9075 1004.278125 -31.815 1003.55625 -32.75 1002.8125 C-33.4925 1002.214375 -34.235 1001.61625 -35 1001 C-35 1000.34 -35 999.68 -35 999 C-35.66 999 -36.32 999 -37 999 C-37.33 997.35 -37.66 995.7 -38 994 C-38.99 993.67 -39.98 993.34 -41 993 C-41 992.01 -41 991.02 -41 990 C-41.66 990 -42.32 990 -43 990 C-43.33 988.35 -43.66 986.7 -44 985 C-44.66 985 -45.32 985 -46 985 C-46.33 983.02 -46.66 981.04 -47 979 C-47.66 979 -48.32 979 -49 979 C-49.33 976.69 -49.66 974.38 -50 972 C-50.66 972 -51.32 972 -52 972 C-52.13277344 971.14535156 -52.26554687 970.29070313 -52.40234375 969.41015625 C-52.57894531 968.30542969 -52.75554687 967.20070313 -52.9375 966.0625 C-53.11152344 964.96035156 -53.28554688 963.85820313 -53.46484375 962.72265625 C-53.71845136 960.09573071 -53.71845136 960.09573071 -55 959 C-55.0990026 956.20226592 -55.13175266 953.42919573 -55.12304783 950.63098049 C-55.12420167 949.73836534 -55.12535552 948.84575019 -55.12654433 947.9260861 C-55.12921887 944.89564715 -55.12468199 941.86525994 -55.12025452 938.83482361 C-55.12069005 936.65606583 -55.12156462 934.47730811 -55.12284368 932.29855067 C-55.1250922 926.28077242 -55.12106251 920.2630118 -55.11606562 914.2452358 C-55.1117664 907.76734692 -55.11320717 901.28945912 -55.1139679 894.81156921 C-55.11466667 883.57798473 -55.11137794 872.34440566 -55.10573006 861.11082268 C-55.09981962 849.32488922 -55.09596544 837.53895807 -55.09487724 825.75302315 C-55.0948085 825.02110079 -55.09473976 824.28917843 -55.09466894 823.5350766 C-55.09433062 819.81824185 -55.09402923 816.10140709 -55.09374207 812.38457233 C-55.09163983 786.035921 -55.0848974 759.68727268 -55.07543945 733.33862305 C-55.06625991 707.73608415 -55.0591739 682.13354607 -55.05493164 656.53100586 C-55.05480011 655.74227586 -55.05466859 654.95354587 -55.05453308 654.14091496 C-55.05321459 646.22039943 -55.05193877 638.29988389 -55.05069422 630.37936835 C-55.04815778 614.2433551 -55.04533653 598.1073419 -55.04234314 581.97132874 C-55.04220585 581.22936787 -55.04206856 580.48740701 -55.04192711 579.72296249 C-55.03770275 556.97407566 -55.0322708 534.22518935 -55.02565002 511.4763031 C-55.02509419 509.56395643 -55.02509419 509.56395643 -55.02452713 507.6129765 C-55.01703134 482.07531745 -55.00836402 456.53765878 -55 431 C-118.69 431 -182.38 431 -248 431 C-248 430.34 -248 429.68 -248 429 C-248.95253662 429.00785522 -248.95253662 429.00785522 -249.92431641 429.01586914 C-252.82453405 429.03676256 -255.7247358 429.04969934 -258.625 429.0625 C-259.62402344 429.07087891 -260.62304688 429.07925781 -261.65234375 429.08789062 C-266.55020275 429.1041087 -271.18656199 429.04318537 -276 428 C-276 427.34 -276 426.68 -276 426 C-279.3 425.67 -282.6 425.34 -286 425 C-286 424.34 -286 423.68 -286 423 C-288.97 422.67 -291.94 422.34 -295 422 C-295 421.34 -295 420.68 -295 420 C-296.27875 419.9175 -297.5575 419.835 -298.875 419.75 C-305.07022706 419.07469089 -310.63653457 416.80341653 -316.10546875 413.87109375 C-318.10674769 412.79112451 -318.10674769 412.79112451 -321 413 C-321 412.34 -321 411.68 -321 411 C-321.53625 410.87625 -322.0725 410.7525 -322.625 410.625 C-325.4638286 409.87793984 -328.22223202 408.94696636 -331 408 C-331 407.34 -331 406.68 -331 406 C-332.32 405.67 -333.64 405.34 -335 405 C-335 404.34 -335 403.68 -335 403 C-336.98 402.67 -338.96 402.34 -341 402 C-341 401.34 -341 400.68 -341 400 C-341.804375 399.87625 -342.60875 399.7525 -343.4375 399.625 C-344.7059375 399.315625 -344.7059375 399.315625 -346 399 C-346.33 398.34 -346.66 397.68 -347 397 C-347.99 396.67 -348.98 396.34 -350 396 C-350 395.34 -350 394.68 -350 394 C-351.32 393.67 -352.64 393.34 -354 393 C-354 392.34 -354 391.68 -354 391 C-354.59941406 390.90332031 -355.19882812 390.80664062 -355.81640625 390.70703125 C-358.46018393 389.8509959 -359.25448832 388.86469239 -360.9375 386.6875 C-363.37932118 383.66751461 -365.94593165 381.41110659 -369 379 C-370.33333333 377.33333333 -371.66666667 375.66666667 -373 374 C-373.825 373.34 -374.65 372.68 -375.5 372 C-378.14921544 369.88062764 -380.07059445 367.78691913 -382 365 C-382 364.01 -382 363.02 -382 362 C-382.99 361.67 -383.98 361.34 -385 361 C-385 360.34 -385 359.68 -385 359 C-385.66 359 -386.32 359 -387 359 C-389.48641871 356.93555836 -390.73396763 354.79024108 -392.0625 351.875 C-393.34308323 348.79891979 -393.34308323 348.79891979 -396 347 C-396 346.01 -396 345.02 -396 344 C-396.66 344 -397.32 344 -398 344 C-398.33 342.35 -398.66 340.7 -399 339 C-399.66 339 -400.32 339 -401 339 C-401.33 338.01 -401.66 337.02 -402 336 C-402.66 335.67 -403.32 335.34 -404 335 C-404.625 331.9375 -404.625 331.9375 -405 329 C-405.66 329 -406.32 329 -407 329 C-407.33 327.02 -407.66 325.04 -408 323 C-408.66 323 -409.32 323 -410 323 C-410.33 320.36 -410.66 317.72 -411 315 C-411.66 315 -412.32 315 -413 315 C-413.33 312.36 -413.66 309.72 -414 307 C-414.66 307 -415.32 307 -416 307 C-418.4021604 302.1956792 -418.61122229 297.26896105 -419 292 C-419.66 292 -420.32 292 -421 292 C-420.979375 291.195625 -420.95875 290.39125 -420.9375 289.5625 C-420.70366379 287.06645115 -420.70366379 287.06645115 -422 286 C-422.14115161 283.32941149 -422.04247107 280.67567762 -422 278 C-422.66 278 -423.32 278 -424 278 C-424.02312611 269.28155997 -424.04091646 260.56313044 -424.05181217 251.84466648 C-424.05704041 247.79674258 -424.06413699 243.74883959 -424.07543945 239.70092773 C-424.08627043 235.79764029 -424.09227728 231.89437301 -424.09487724 227.9910717 C-424.09673111 226.49866353 -424.100351 225.00625652 -424.10573006 223.51385689 C-424.11294331 221.43051861 -424.11399083 219.34726469 -424.11352539 217.26391602 C-424.115746 216.07588882 -424.11796661 214.88786163 -424.12025452 213.66383362 C-424 211 -424 211 -423 210 C-422.855625 208.948125 -422.71125 207.89625 -422.5625 206.8125 C-422.04151344 203.28136884 -421.14415074 200.36514924 -420 197 C-419.65152428 195.50344536 -419.31921347 194.00306815 -419 192.5 C-418.23280211 188.90147658 -417.24493505 185.46803335 -416 182 C-415.34 182 -414.68 182 -414 182 C-413.67 179.03 -413.34 176.06 -413 173 C-412.34 173 -411.68 173 -411 173 C-410.67 170.69 -410.34 168.38 -410 166 C-409.34 166 -408.68 166 -408 166 C-407.67 163.69 -407.34 161.38 -407 159 C-406.34 159 -405.68 159 -405 159 C-404.505 156.03 -404.505 156.03 -404 153 C-403.34 153 -402.68 153 -402 153 C-401.505 150.03 -401.505 150.03 -401 147 C-400.34 147 -399.68 147 -399 147 C-398.87625 146.195625 -398.7525 145.39125 -398.625 144.5625 C-398.41875 143.716875 -398.2125 142.87125 -398 142 C-397.34 141.67 -396.68 141.34 -396 141 C-395.67 140.01 -395.34 139.02 -395 138 C-394.34 138 -393.68 138 -393 138 C-392.9175 137.236875 -392.835 136.47375 -392.75 135.6875 C-391.83919988 132.42379958 -390.71861635 131.86904874 -388 130 C-387.67 129.01 -387.34 128.02 -387 127 C-385.33333333 125.66666667 -383.66666667 124.33333333 -382 123 C-381.505 121.515 -381.505 121.515 -381 120 C-380.34 120 -379.68 120 -379 120 C-378.9071875 119.13375 -378.9071875 119.13375 -378.8125 118.25 C-377.67561467 115.10170216 -375.63092771 114.01908406 -373 112 C-372.34 111.175 -371.68 110.35 -371 109.5 C-368.88062764 106.85078456 -366.78691913 104.92940555 -364 103 C-363.01 103 -362.02 103 -361 103 C-361 102.34 -361 101.68 -361 101 C-359.625 99.375 -359.625 99.375 -358 98 C-357.34 98 -356.68 98 -356 98 C-356 97.34 -356 96.68 -356 96 C-355.01 95.67 -354.02 95.34 -353 95 C-352.505 94.505 -352.01 94.01 -351.5 93.5 C-350 92 -350 92 -347 91 C-346.67 90.34 -346.34 89.68 -346 89 C-345.34 89 -344.68 89 -344 89 C-344 88.34 -344 87.68 -344 87 C-342.02 86.67 -340.04 86.34 -338 86 C-337.505 84.515 -337.505 84.515 -337 83 C-336.01 83 -335.02 83 -334 83 C-334 82.34 -334 81.68 -334 81 C-332.02 80.67 -330.04 80.34 -328 80 C-328 79.34 -328 78.68 -328 78 C-324.535 77.505 -324.535 77.505 -321 77 C-321 76.34 -321 75.68 -321 75 C-319.02 74.67 -317.04 74.34 -315 74 C-315 73.34 -315 72.68 -315 72 C-308.2402257 68.57589003 -302.59952888 66.37374732 -295 66 C-295 65.34 -295 64.68 -295 64 C-291.7 63.67 -288.4 63.34 -285 63 C-285 62.34 -285 61.68 -285 61 C-280.71 60.67 -276.42 60.34 -272 60 C-272 59.34 -272 58.68 -272 58 C-249.76850159 56.76976508 -227.54799952 56.86784935 -205.29090762 56.89860606 C-199.92050732 56.90493857 -194.55010621 56.90545111 -189.17970276 56.90663147 C-179.0515634 56.90971603 -168.92343508 56.91788988 -158.79530054 56.92798096 C-147.24717901 56.93923239 -135.6990569 56.9446751 -124.15093124 56.94967639 C-100.43394808 56.96007553 -76.71697467 56.97761814 -53 57 C-52.67 53.37 -52.34 49.74 -52 46 C-51.34 46 -50.68 46 -50 46 C-49.67 44.02 -49.34 42.04 -49 40 C-48.34 40 -47.68 40 -47 40 C-46.87625 39.030625 -46.7525 38.06125 -46.625 37.0625 C-46.41875 36.051875 -46.2125 35.04125 -46 34 C-45.34 33.67 -44.68 33.34 -44 33 C-43.566875 32.2575 -43.13375 31.515 -42.6875 30.75 C-40.81056112 27.69128479 -38.52879017 25.52879017 -36 23 C-35.67 22.01 -35.34 21.02 -35 20 C-33.35 19.67 -31.7 19.34 -30 19 C-29.67 18.01 -29.34 17.02 -29 16 C-28.34 16 -27.68 16 -27 16 C-26.67 15.01 -26.34 14.02 -26 13 C-25.01 13 -24.02 13 -23 13 C-23 12.34 -23 11.68 -23 11 C-21.35 10.67 -19.7 10.34 -18 10 C-18 9.34 -18 8.68 -18 8 C-12.375 5 -12.375 5 -9 5 C-9 4.34 -9 3.68 -9 3 C-6.03 2.67 -3.06 2.34 0 2 C0 1.34 0 0.68 0 0 Z " fill="currentColor" transform="translate(493,0)"/>
</svg>
