<?xml version="1.0" encoding="UTF-8"?>
<svg version="1.1" xmlns="http://www.w3.org/2000/svg" width="1024" height="1024">
<path d="M0 0 C41.58 0 83.16 0 126 0 C127.34802305 4.04406916 128.28488919 7.01878801 128.82202148 11.08398438 C128.95233261 12.04518188 129.08264374 13.00637939 129.21690369 13.9967041 C129.35028641 15.01872925 129.48366913 16.04075439 129.62109375 17.09375 C129.91965919 19.27998381 130.21849558 21.46618062 130.51757812 23.65234375 C130.97998555 27.08168112 131.43900926 30.5114089 131.89282227 33.94189453 C132.33466822 37.2646714 132.78960263 40.58545806 133.24609375 43.90625 C133.37745224 44.92827515 133.50881073 45.95030029 133.64414978 47.0032959 C134.6206132 54.42852626 134.6206132 54.42852626 138 61 C142.39711965 63.36514978 146.96057126 64.65474436 151.77734375 65.91015625 C153.09387797 66.25902021 154.41036346 66.60806808 155.72680664 66.95727539 C156.41292023 67.13727081 157.09903381 67.31726624 157.80593872 67.50271606 C167.6023203 70.07541106 177.35758292 72.7316036 187.0078125 75.8125 C187.73124344 76.0431163 188.45467438 76.2737326 189.20002747 76.51133728 C192.67023473 77.62256566 196.13372587 78.75149278 199.59155273 79.90063477 C209.71363835 83.59550154 209.71363835 83.59550154 219.99609375 82.07421875 C224.61448774 77.63104838 228.61345406 72.76854153 232.59716797 67.75292969 C235.40496049 64.24441067 238.26896662 60.78175725 241.125 57.3125 C241.69871338 56.61213623 242.27242676 55.91177246 242.86352539 55.19018555 C258.02759825 36.73777991 258.02759825 36.73777991 264.2734375 35.1875 C268.7380519 34.96286531 270.6963182 35.84013376 274.625 37.9375 C275.28322754 38.28377441 275.94145508 38.63004883 276.61962891 38.98681641 C279.09314638 40.30095801 281.5463573 41.64910339 284 43 C285.08345703 43.59151855 286.16691406 44.18303711 287.28320312 44.79248047 C294.76389768 48.8768005 302.22153282 53.00183797 309.66894531 57.14648438 C312.44165236 58.68931579 315.21608489 60.22891637 317.9921875 61.765625 C320.79420168 63.31710947 323.59357186 64.87318406 326.390625 66.43359375 C330.01978224 68.45804938 333.65776076 70.46615833 337.296875 72.47265625 C339.5313545 73.71074892 341.76572993 74.94902942 344 76.1875 C345.03930664 76.75807129 346.07861328 77.32864258 347.14941406 77.91650391 C365.77718054 88.27224872 365.77718054 88.27224872 368 94 C367.6680267 100.23252346 364.87448726 106.07075216 362.2265625 111.62109375 C361.86154633 112.40589615 361.49653015 113.19069855 361.12045288 113.99928284 C359.96368987 116.48271411 358.79501589 118.96028894 357.625 121.4375 C356.09238421 124.70518271 354.56445505 127.97503339 353.0390625 131.24609375 C352.6768158 132.02248199 352.31456909 132.79887024 351.94134521 133.5987854 C346.20503361 144.35879577 346.20503361 144.35879577 345 156 C347.744944 160.59842254 350.94841293 164.23178166 354.75 167.9375 C355.28439697 168.46617676 355.81879395 168.99485352 356.36938477 169.53955078 C359.14210146 172.26167198 361.95796982 174.87829347 364.9375 177.375 C374.92014249 185.87486505 383.53233498 196.44074505 391.91015625 206.48828125 C392.43859131 207.11669922 392.96702637 207.74511719 393.51147461 208.39257812 C394.5641419 209.64513911 395.61083721 210.90275061 396.65063477 212.16601562 C400.65316048 216.95597721 400.65316048 216.95597721 406 220 C412.95662363 219.50836885 419.57347395 218.08658224 426.3515625 216.49609375 C428.52340945 215.99792456 430.69528532 215.49988145 432.8671875 215.00195312 C436.25580618 214.2187718 439.64382833 213.43311815 443.03125 212.64477539 C446.3240661 211.88040568 449.61890772 211.12530731 452.9140625 210.37109375 C453.9215152 210.13361923 454.9289679 209.89614471 455.96694946 209.651474 C468.41086467 206.81331297 468.41086467 206.81331297 474 209.375 C481.46956956 215.91087337 486.10498394 225.39305132 490.9375 233.9375 C492.25642573 236.24690303 493.57645358 238.55563182 494.8984375 240.86328125 C495.23518997 241.45187927 495.57194244 242.04047729 495.91889954 242.64691162 C499.56724898 249.01234574 503.31217957 255.31913534 507.0625 261.625 C507.71992187 262.73520508 508.37734375 263.84541016 509.0546875 264.98925781 C512.373464 270.59295967 515.71269952 276.18280553 519.0859375 281.75390625 C520.37004422 283.89828628 521.65390869 286.04281141 522.9375 288.1875 C523.53506104 289.16090332 524.13262207 290.13430664 524.74829102 291.13720703 C527.96194899 296.53994715 529.93637372 300.65858053 530 307 C528.78417292 309.5421839 527.82477122 310.93700799 526 313 C525.33097656 313.77472656 524.66195312 314.54945313 523.97265625 315.34765625 C520.02375001 319.82308332 515.93378791 324.11327026 511.67578125 328.29296875 C509.88946557 330.11259568 508.22522165 332.00453917 506.5625 333.9375 C504.14382221 336.74576347 501.64100317 339.39970593 499 342 C487.68895897 352.35265251 487.68895897 352.35265251 482.7109375 365.90234375 C482.77535724 372.29340491 484.48572703 377.59305191 486.625 383.5625 C489.67801107 392.56174309 492.27051356 401.54401899 494.375 410.8125 C494.61299316 411.85414307 494.85098633 412.89578613 495.09619141 413.96899414 C496.44829804 420.05932304 497.53055243 426.13127694 498.36181641 432.31518555 C499.14033767 435.5903953 499.7946479 437.41721102 502 440 C508.39853548 443.22203774 515.95901647 444.08758792 522.9375 445.33984375 C525.23702627 445.76732482 527.53650398 446.19506715 529.8359375 446.62304688 C533.42277351 447.2829913 537.01020308 447.93935164 540.59863281 448.59057617 C544.08845824 449.2264585 547.57550691 449.87613469 551.0625 450.52734375 C552.12525146 450.71602524 553.18800293 450.90470673 554.28295898 451.09910583 C570.08122428 454.0705622 570.08122428 454.0705622 575 460 C575.38590336 461.97938347 575.38590336 461.97938347 575.40113831 464.27536011 C575.42033073 465.58331543 575.42033073 465.58331543 575.43991089 466.91769409 C575.43855133 467.87152985 575.43719177 468.8253656 575.43579102 469.80810547 C575.45090477 471.3182724 575.45090477 471.3182724 575.46632385 472.85894775 C575.49487709 476.19513988 575.50068425 479.53088071 575.50390625 482.8671875 C575.51354248 485.18262928 575.52363458 487.4980692 575.53416443 489.81350708 C575.55214445 494.6707991 575.55768355 499.52793094 575.5559082 504.38525391 C575.55560332 510.61226942 575.59655661 516.83825881 575.64822483 523.06503105 C575.68156705 527.84856898 575.68766642 532.63185839 575.68607903 537.41550064 C575.68962223 539.71125958 575.70290915 542.00702474 575.72607613 544.30266953 C575.75544428 547.51354732 575.74685992 550.72219238 575.72875977 553.93310547 C575.74561829 554.88289276 575.76247681 555.83268005 575.77984619 556.81124878 C575.68991563 563.08328493 575.68991563 563.08328493 573.7292738 565.68845844 C570.19528839 568.75714567 566.64076085 570.0037116 562.13671875 571.02734375 C561.45808273 571.18412094 560.77944672 571.34089813 560.08024597 571.50242615 C548.65731826 574.0698836 537.09693142 576.06198275 525.57885742 578.14819336 C522.45324608 578.71642157 519.33009475 579.2968618 516.20703125 579.87890625 C515.25496292 580.04773819 514.30289459 580.21657013 513.32197571 580.39051819 C506.71624039 581.60485519 506.71624039 581.60485519 501 585 C499.85092967 586.83198799 499.85092967 586.83198799 499.328125 588.96875 C499.09802734 589.76796875 498.86792969 590.5671875 498.63085938 591.390625 C497.50090779 596.06435665 496.61370544 600.77093229 495.75 605.5 C492.94215508 620.20209623 489.233829 634.74761924 484.31640625 648.89453125 C482.28717974 654.90281797 481.71602649 660.38069405 484.5625 666.1875 C486.98386185 668.98137905 489.49761446 671.58606622 492.15234375 674.15625 C493.99297824 675.99299308 495.68538615 677.89921025 497.375 679.875 C499.96634205 682.8846753 502.67254783 685.71088616 505.5 688.5 C508.95075789 691.90396795 512.16984614 695.42115934 515.31640625 699.10546875 C516.98635162 700.98464161 518.74221033 702.70483915 520.5625 704.4375 C523.0934847 706.9627455 525.36929844 709.56375933 527.5 712.4375 C528.0053125 713.11683594 528.510625 713.79617188 529.03125 714.49609375 C530.48515848 718.25397818 530.14149228 721.23995101 529 725 C527.07695686 729.09923776 524.77627815 732.93877095 522.4375 736.8125 C521.41173961 738.54964307 520.38598045 740.28678687 519.36029053 742.02397156 C517.93492971 744.43008392 516.49697841 746.82857456 515.05963135 749.22753906 C513.37732105 752.04156424 511.71055251 754.86473019 510.04296875 757.6875 C507.41707426 762.13124586 504.78148831 766.56904282 502.140625 771.00390625 C499.20133669 775.95142588 496.3011501 780.91970578 493.421875 785.90234375 C492.27694316 787.87771043 491.13161217 789.85284531 489.98626709 791.82797241 C489.25565969 793.09161785 488.52759529 794.35673762 487.80230713 795.6234436 C477.44120076 813.71646124 477.44120076 813.71646124 471 816 C463.9801826 816.58551648 457.66846673 814.98713816 450.87109375 813.33984375 C448.51370923 812.7882518 446.15628618 812.23682447 443.79882812 811.68554688 C440.10914142 810.81152482 436.42047417 809.93342839 432.73266602 809.05151367 C429.15619971 808.19958869 425.5764364 807.3628026 421.99609375 806.52734375 C420.89800888 806.25969711 419.79992401 805.99205048 418.66856384 805.71629333 C413.08735076 804.42003524 408.58311432 803.45443679 403 805 C400.86159268 806.83585793 399.26018833 808.42480525 397.5 810.5625 C397.02643066 811.10825684 396.55286133 811.65401367 396.06494141 812.21630859 C394.69523682 813.79896418 393.34725343 815.39824215 392 817 C390.79444238 818.37743431 389.58655781 819.75284034 388.375 821.125 C387.83101562 821.75148438 387.28703125 822.37796875 386.7265625 823.0234375 C383.99737238 826.14780446 381.22149017 829.22913079 378.4375 832.3046875 C376.76264523 834.15669038 375.09642238 836.01652482 373.4375 837.8828125 C368.07419235 843.87605534 362.47499016 849.43227144 356.51171875 854.82910156 C348.69231186 861.48395459 348.69231186 861.48395459 344.671875 870.48828125 C345.14422592 875.54356072 347.15442033 879.60000703 349.25 884.1875 C349.90923462 885.66947876 349.90923462 885.66947876 350.58178711 887.18139648 C352.04260345 890.45975495 353.51958116 893.73044939 355 897 C356.65249984 900.65434871 358.30369912 904.30920491 359.94628906 907.96801758 C361.00738158 910.32790657 362.07552376 912.68464094 363.15136719 915.0378418 C363.63895508 916.11976807 364.12654297 917.20169434 364.62890625 918.31640625 C365.06275635 919.26974854 365.49660645 920.22309082 365.94360352 921.20532227 C367.06877868 924.18195276 367.71073932 926.83094619 368 930 C365.39408027 935.42442764 361.82286762 937.7731097 356.75 940.5625 C355.65691528 941.18487549 355.65691528 941.18487549 354.54174805 941.81982422 C345.96898162 946.66402747 337.27654873 951.29983864 328.60546875 955.96484375 C323.15263454 958.90544377 317.77075568 961.94796153 312.40625 965.046875 C307.57741912 967.81570005 302.70702898 970.50787713 297.83740234 973.20410156 C291.97395095 976.45251634 286.12945153 979.73337664 280.30126953 983.04467773 C268.48712224 989.72583553 268.48712224 989.72583553 263.0703125 988.7578125 C253.13642984 985.12163658 245.38518199 972.58122287 239.06640625 964.60546875 C229.85855814 951.27609344 229.85855814 951.27609344 218 941 C210.64392147 940.21152873 204.2768524 942.53070232 197.37557983 944.81707764 C193.83406897 945.98939144 190.28043012 947.12361266 186.7265625 948.2578125 C186.00214462 948.4896524 185.27772675 948.72149231 184.53135681 948.96035767 C175.97875972 951.67632686 167.32872335 954.0131995 158.65551758 956.31054688 C155.42692185 957.17506884 152.2120118 958.07592035 149 959 C147.9579541 959.28649414 146.9159082 959.57298828 145.84228516 959.86816406 C144.85921387 960.17206055 143.87614258 960.47595703 142.86328125 960.7890625 C141.99614502 961.0463916 141.12900879 961.3037207 140.2355957 961.56884766 C136.94580835 963.67485764 136.016478 966.38200232 135 970 C134.24365846 973.63759388 133.7322407 977.29027991 133.24609375 980.97265625 C133.09970963 982.01393173 132.9533255 983.05520721 132.80250549 984.1280365 C132.33819279 987.43830982 131.88687073 990.75016788 131.4375 994.0625 C130.98309844 997.37816248 130.52578359 1000.6933419 130.06178284 1004.00767517 C129.77421963 1006.06476618 129.49232789 1008.1226603 129.21690369 1010.18141174 C129.021437 1011.58833534 129.021437 1011.58833534 128.82202148 1013.02368164 C128.71115707 1013.84195938 128.60029266 1014.66023712 128.48606873 1015.50331116 C127.92214486 1018.39990241 126.9331801 1021.2004597 126 1024 C84.42 1024 42.84 1024 0 1024 C-1.34802305 1019.95593084 -2.28488919 1016.98121199 -2.82202148 1012.91601562 C-2.95233261 1011.95481812 -3.08264374 1010.99362061 -3.21690369 1010.0032959 C-3.35028641 1008.98127075 -3.48366913 1007.95924561 -3.62109375 1006.90625 C-3.91965919 1004.72001619 -4.21849558 1002.53381938 -4.51757812 1000.34765625 C-4.97998555 996.91831888 -5.43900926 993.4885911 -5.89282227 990.05810547 C-6.33466822 986.7353286 -6.78960263 983.41454194 -7.24609375 980.09375 C-7.37745224 979.07172485 -7.50881073 978.04969971 -7.64414978 976.9967041 C-8.6206132 969.57147374 -8.6206132 969.57147374 -12 963 C-16.39711965 960.63485022 -20.96057126 959.34525564 -25.77734375 958.08984375 C-27.09387797 957.74097979 -28.41036346 957.39193192 -29.72680664 957.04272461 C-30.41292023 956.86272919 -31.09903381 956.68273376 -31.80593872 956.49728394 C-41.6023203 953.92458894 -51.35758292 951.2683964 -61.0078125 948.1875 C-62.09295891 947.84157555 -62.09295891 947.84157555 -63.20002747 947.48866272 C-66.67023473 946.37743434 -70.13372587 945.24850722 -73.59155273 944.09936523 C-83.71363835 940.40449846 -83.71363835 940.40449846 -93.99609375 941.92578125 C-98.61448774 946.36895162 -102.61345406 951.23145847 -106.59716797 956.24707031 C-109.40496049 959.75558933 -112.26896662 963.21824275 -115.125 966.6875 C-115.69871338 967.38786377 -116.27242676 968.08822754 -116.86352539 968.80981445 C-132.02759825 987.26222009 -132.02759825 987.26222009 -138.2734375 988.8125 C-142.7380519 989.03713469 -144.6963182 988.15986624 -148.625 986.0625 C-149.28322754 985.71622559 -149.94145508 985.36995117 -150.61962891 985.01318359 C-153.09314638 983.69904199 -155.5463573 982.35089661 -158 981 C-159.08345703 980.40848145 -160.16691406 979.81696289 -161.28320312 979.20751953 C-168.76389768 975.1231995 -176.22153282 970.99816203 -183.66894531 966.85351562 C-186.44165236 965.31068421 -189.21608489 963.77108363 -191.9921875 962.234375 C-194.79420168 960.68289053 -197.59357186 959.12681594 -200.390625 957.56640625 C-204.01978224 955.54195062 -207.65776076 953.53384167 -211.296875 951.52734375 C-213.5313545 950.28925108 -215.76572993 949.05097058 -218 947.8125 C-219.55895996 946.95664307 -219.55895996 946.95664307 -221.14941406 946.08349609 C-239.77718054 935.72775128 -239.77718054 935.72775128 -242 930 C-241.6680267 923.76747654 -238.87448726 917.92924784 -236.2265625 912.37890625 C-235.86154633 911.59410385 -235.49653015 910.80930145 -235.12045288 910.00071716 C-233.96368987 907.51728589 -232.79501589 905.03971106 -231.625 902.5625 C-230.09238421 899.29481729 -228.56445505 896.02496661 -227.0390625 892.75390625 C-226.6768158 891.97751801 -226.31456909 891.20112976 -225.94134521 890.4012146 C-220.20503361 879.64120423 -220.20503361 879.64120423 -219 868 C-221.744944 863.40157746 -224.94841293 859.76821834 -228.75 856.0625 C-229.28439697 855.53382324 -229.81879395 855.00514648 -230.36938477 854.46044922 C-233.14210146 851.73832802 -235.95796982 849.12170653 -238.9375 846.625 C-248.92014249 838.12513495 -257.53233498 827.55925495 -265.91015625 817.51171875 C-266.70280884 816.5690918 -266.70280884 816.5690918 -267.51147461 815.60742188 C-268.5641419 814.35486089 -269.61083721 813.09724939 -270.65063477 811.83398438 C-274.65316048 807.04402279 -274.65316048 807.04402279 -280 804 C-286.95662363 804.49163115 -293.57347395 805.91341776 -300.3515625 807.50390625 C-302.52340945 808.00207544 -304.69528532 808.50011855 -306.8671875 808.99804688 C-310.25580618 809.7812282 -313.64382833 810.56688185 -317.03125 811.35522461 C-320.3240661 812.11959432 -323.61890772 812.87469269 -326.9140625 813.62890625 C-327.9215152 813.86638077 -328.9289679 814.10385529 -329.96694946 814.348526 C-342.41086467 817.18668703 -342.41086467 817.18668703 -348 814.625 C-355.46956956 808.08912663 -360.10498394 798.60694868 -364.9375 790.0625 C-366.25642573 787.75309697 -367.57645358 785.44436818 -368.8984375 783.13671875 C-369.23518997 782.54812073 -369.57194244 781.95952271 -369.91889954 781.35308838 C-373.56724898 774.98765426 -377.31217957 768.68086466 -381.0625 762.375 C-381.71992188 761.26479492 -382.37734375 760.15458984 -383.0546875 759.01074219 C-386.373464 753.40704033 -389.71269952 747.81719447 -393.0859375 742.24609375 C-394.37004422 740.10171372 -395.65390869 737.95718859 -396.9375 735.8125 C-397.53506104 734.83909668 -398.13262207 733.86569336 -398.74829102 732.86279297 C-401.96194899 727.46005285 -403.93637372 723.34141947 -404 717 C-402.78417292 714.4578161 -401.82477122 713.06299201 -400 711 C-399.33097656 710.22527344 -398.66195312 709.45054687 -397.97265625 708.65234375 C-394.02375001 704.17691668 -389.93378791 699.88672974 -385.67578125 695.70703125 C-383.88946557 693.88740432 -382.22522165 691.99546083 -380.5625 690.0625 C-378.14382221 687.25423653 -375.64100317 684.60029407 -373 682 C-361.68895897 671.64734749 -361.68895897 671.64734749 -356.7109375 658.09765625 C-356.77535724 651.70659509 -358.48572703 646.40694809 -360.625 640.4375 C-363.67801107 631.43825691 -366.27051356 622.45598101 -368.375 613.1875 C-368.61299316 612.14585693 -368.85098633 611.10421387 -369.09619141 610.03100586 C-370.44829804 603.94067696 -371.53055243 597.86872306 -372.36181641 591.68481445 C-373.14033767 588.4096047 -373.7946479 586.58278898 -376 584 C-382.39853548 580.77796226 -389.95901647 579.91241208 -396.9375 578.66015625 C-399.23702627 578.23267518 -401.53650398 577.80493285 -403.8359375 577.37695312 C-407.42277351 576.7170087 -411.01020308 576.06064836 -414.59863281 575.40942383 C-418.08845824 574.7735415 -421.57550691 574.12386531 -425.0625 573.47265625 C-426.12525146 573.28397476 -427.18800293 573.09529327 -428.28295898 572.90089417 C-444.08122428 569.9294378 -444.08122428 569.9294378 -449 564 C-449.38590336 562.02061653 -449.38590336 562.02061653 -449.40113831 559.72463989 C-449.41393326 558.85266968 -449.42672821 557.98069946 -449.43991089 557.08230591 C-449.43855133 556.12847015 -449.43719177 555.1746344 -449.43579102 554.19189453 C-449.45090477 552.6817276 -449.45090477 552.6817276 -449.46632385 551.14105225 C-449.49487709 547.80486012 -449.50068425 544.46911929 -449.50390625 541.1328125 C-449.51354248 538.81737072 -449.52363458 536.5019308 -449.53416443 534.18649292 C-449.55214445 529.3292009 -449.55768355 524.47206906 -449.5559082 519.61474609 C-449.55560332 513.38773058 -449.59655661 507.16174119 -449.64822483 500.93496895 C-449.68156705 496.15143102 -449.68766642 491.36814161 -449.68607903 486.58449936 C-449.68962223 484.28874042 -449.70290915 481.99297526 -449.72607613 479.69733047 C-449.75544428 476.48645268 -449.74685992 473.27780762 -449.72875977 470.06689453 C-449.75404755 468.64221359 -449.75404755 468.64221359 -449.77984619 467.18875122 C-449.68991563 460.91671507 -449.68991563 460.91671507 -447.7292738 458.31154156 C-444.19528839 455.24285433 -440.64076085 453.9962884 -436.13671875 452.97265625 C-435.45808273 452.81587906 -434.77944672 452.65910187 -434.08024597 452.49757385 C-422.65731826 449.9301164 -411.09693142 447.93801725 -399.57885742 445.85180664 C-396.45324608 445.28357843 -393.33009475 444.7031382 -390.20703125 444.12109375 C-389.25496292 443.95226181 -388.30289459 443.78342987 -387.32197571 443.60948181 C-380.71654531 442.39476719 -380.71654531 442.39476719 -375 439 C-373.85298195 437.1766223 -373.85298195 437.1766223 -373.33203125 435.046875 C-372.98712646 433.84901367 -372.98712646 433.84901367 -372.63525391 432.62695312 C-371.48353972 427.86429184 -370.5725191 423.06827058 -369.6875 418.25 C-367.01359081 404.31079065 -363.47347506 390.72115573 -358.625 377.375 C-356.35904765 370.71043426 -355.4442431 364.23597434 -358.5625 357.75 C-360.99804136 355.00220975 -363.51118259 352.40074345 -366.1484375 349.84765625 C-368.01062102 347.98940139 -369.72577142 346.05951668 -371.4375 344.0625 C-373.85617779 341.25423653 -376.35899683 338.60029407 -379 336 C-382.25058999 332.79941909 -385.25016301 329.46051567 -388.21484375 325.99609375 C-390.07785403 323.91294659 -392.04507245 321.99570856 -394.0625 320.0625 C-403.97602338 310.16833897 -403.97602338 310.16833897 -404.02734375 303.38671875 C-403.07895668 297.70955922 -399.97179701 293.14600485 -397 288.3125 C-395.7157657 286.16949859 -394.43192885 284.02625896 -393.1484375 281.8828125 C-392.47006836 280.76036133 -391.79169922 279.63791016 -391.09277344 278.48144531 C-387.90185487 273.19007154 -384.8015206 267.84558193 -381.68838501 262.50823975 C-379.55092075 258.84844945 -377.40187794 255.19545284 -375.25450134 251.54147339 C-373.42791734 248.43284112 -371.60320358 245.32314397 -369.78271484 242.2109375 C-367.97478701 239.12033459 -366.16210519 236.03256685 -364.34613037 232.94668579 C-363.3448905 231.24262697 -362.34838998 229.53578623 -361.35205078 227.82885742 C-351.05309411 210.36218307 -351.05309411 210.36218307 -345 208 C-339.31798121 207.67044471 -334.29768427 208.60744516 -328.8046875 209.86328125 C-327.93538605 210.05593063 -327.06608459 210.24858002 -326.17044067 210.44706726 C-323.40370215 211.06198239 -320.63938675 211.68710702 -317.875 212.3125 C-316.04181505 212.72136896 -314.20848276 213.12957794 -312.375 213.53710938 C-310.58068246 213.93729065 -308.78641099 214.33767851 -306.9921875 214.73828125 C-306.11906921 214.93293976 -305.24595093 215.12759827 -304.34637451 215.32815552 C-300.56721585 216.17608107 -296.7964828 217.03806586 -293.04394531 217.99755859 C-285.04423519 220.1548448 -285.04423519 220.1548448 -277 219 C-274.86150947 217.16407063 -273.2603071 215.5752004 -271.5 213.4375 C-271.02498047 212.89029297 -270.54996094 212.34308594 -270.06054688 211.77929688 C-268.69191666 210.19838932 -267.34506879 208.60094712 -266 207 C-264.83625407 205.66411666 -263.670048 204.33036708 -262.5 203 C-261.96375 202.38125 -261.4275 201.7625 -260.875 201.125 C-257.97949962 197.84343291 -255.00759195 194.63196577 -252.03808594 191.41748047 C-249.53889224 188.70560761 -247.10932915 185.95862728 -244.75 183.125 C-240.71042891 178.43673866 -236.08422278 174.33613431 -231.50488281 170.18603516 C-224.37049352 163.80852812 -224.37049352 163.80852812 -219 156 C-218.94202289 149.26587769 -221.06504037 143.72094957 -223.89453125 137.72265625 C-224.28315842 136.87126572 -224.67178558 136.01987518 -225.07218933 135.14268494 C-226.30699077 132.44359637 -227.55898977 129.7529433 -228.8125 127.0625 C-230.05158945 124.37405577 -231.28701676 121.68396687 -232.52067566 118.99302673 C-233.28585784 117.32711266 -234.05472223 115.66288259 -234.82807922 114.00074768 C-235.9043859 111.675192 -236.95753235 109.34090845 -238 107 C-238.39327484 106.13075897 -238.78654968 105.26151794 -239.19174194 104.36593628 C-239.56763458 103.49421783 -239.94352722 102.62249939 -240.33081055 101.72436523 C-240.67492477 100.93916 -241.019039 100.15395477 -241.37358093 99.34495544 C-242.13319784 96.50138331 -241.86065121 94.79647827 -241 92 C-234.49905413 83.82139068 -222.97043152 79.24717587 -214 74.25 C-212.89914063 73.63511719 -211.79828125 73.02023438 -210.6640625 72.38671875 C-203.74645038 68.52478844 -196.82428314 64.67096464 -189.89306641 60.83349609 C-185.55033801 58.42674173 -181.22068986 55.99804782 -176.8984375 53.5546875 C-170.61586422 50.00566271 -164.31664067 46.48802337 -158 43 C-157.154375 42.53126465 -156.30875 42.0625293 -155.4375 41.57958984 C-153.26104193 40.38480505 -151.07264458 39.21773327 -148.875 38.0625 C-148.2670459 37.72653809 -147.6590918 37.39057617 -147.03271484 37.04443359 C-142.67704582 34.81552243 -139.69601702 34.75547252 -135 36 C-126.16257767 41.38906334 -119.40229688 51.3971742 -113.06640625 59.39453125 C-103.85855814 72.72390656 -103.85855814 72.72390656 -92 83 C-84.73588854 83.75357489 -78.67975175 81.58052632 -71.83096313 79.29745483 C-61.91423239 75.99367712 -51.96121225 72.91569523 -41.84375 70.28515625 C-41.0046257 70.06591492 -40.1655014 69.84667358 -39.3009491 69.62078857 C-35.19748348 68.5530968 -31.08956492 67.50827645 -26.97387695 66.48876953 C-25.46811795 66.10114397 -23.9624957 65.7129867 -22.45703125 65.32421875 C-21.77503662 65.16301041 -21.09304199 65.00180206 -20.39038086 64.83570862 C-15.62650878 63.58246358 -12.89648773 61.99769679 -10 58 C-8.95663515 54.71053576 -8.45936133 51.41442963 -8 48 C-7.81268311 46.78056702 -7.81268311 46.78056702 -7.62158203 45.53649902 C-7.24457392 43.04276312 -6.9002942 40.54620788 -6.5625 38.046875 C-6.30483512 36.19268781 -6.0470182 34.33852175 -5.7890625 32.484375 C-5.3920458 29.60575765 -4.99685375 26.72691193 -4.60449219 23.84765625 C-4.22045232 21.03835224 -3.82939974 18.23009177 -3.4375 15.421875 C-3.322854 14.56551453 -3.20820801 13.70915405 -3.09008789 12.82684326 C-2.97656982 12.01870178 -2.86305176 11.2105603 -2.74609375 10.37792969 C-2.64997803 9.67528992 -2.5538623 8.97265015 -2.45483398 8.24871826 C-1.88610689 5.43690769 -0.90717855 2.72153565 0 0 Z M-75 379 C-86.08124728 391.51108563 -95.30063615 405.19595284 -103 420 C-103.35336426 420.67933594 -103.70672852 421.35867188 -104.07080078 422.05859375 C-128.38335576 469.53931949 -129.91905369 526.71696625 -114.30029297 577.07275391 C-106.62531457 600.78817158 -94.50865564 622.27884413 -78 641 C-77.36046387 641.72993164 -77.36046387 641.72993164 -76.70800781 642.47460938 C-61.24276359 660.04419569 -42.88456521 674.39887993 -22 685 C-21.32259766 685.34756348 -20.64519531 685.69512695 -19.94726562 686.05322266 C22.90784545 707.81151221 73.35509658 711.85632441 119.140625 697.05615234 C166.79129219 680.94534695 205.73551955 648.73206781 229 604 C229.35336426 603.32066406 229.70672852 602.64132812 230.07080078 601.94140625 C254.38335576 554.46068051 255.91905369 497.28303375 240.30029297 446.92724609 C232.62531457 423.21182842 220.50865564 401.72115587 204 383 C203.57364258 382.51337891 203.14728516 382.02675781 202.70800781 381.52539062 C187.24276359 363.95580431 168.88456521 349.60112007 148 339 C147.32259766 338.65243652 146.64519531 338.30487305 145.94726562 337.94677734 C71.2774219 300.03559149 -17.93110796 319.4467984 -75 379 Z " fill="#000000" transform="translate(449,0)"/>
</svg>
