<?xml version="1.0" encoding="UTF-8"?>
<svg version="1.1" xmlns="http://www.w3.org/2000/svg" width="1024" height="1024">
<path d="M0 0 C1.2658699 -0.00843994 2.5317398 -0.01687988 3.83596939 -0.02557558 C5.24350723 -0.01978012 6.65104393 -0.01369908 8.05857944 -0.00736332 C9.55165002 -0.01153472 11.04471742 -0.01701116 12.53777891 -0.02368313 C16.64652104 -0.03818206 20.75506334 -0.03387922 24.86381662 -0.02651632 C29.29266886 -0.02179791 33.72147704 -0.0342827 38.15031528 -0.04453373 C46.82901866 -0.06175314 55.50764974 -0.06255525 64.18636578 -0.05732083 C71.23858131 -0.05328376 78.29077542 -0.05471716 85.34298992 -0.06006908 C86.34568512 -0.06081751 87.34838031 -0.06156593 88.38146021 -0.06233703 C90.41825942 -0.06386846 92.45505863 -0.06540681 94.49185783 -0.066952 C113.60400498 -0.08068839 132.71611123 -0.07523134 151.82825745 -0.06376678 C169.3230866 -0.05383301 186.81781 -0.06677555 204.31262284 -0.09070098 C222.26529165 -0.11506806 240.21791116 -0.12470575 258.17059618 -0.11804825 C268.25408666 -0.11455073 278.33749578 -0.11682316 288.42097378 -0.13429928 C297.00479547 -0.14899139 305.58847853 -0.14969597 314.17229741 -0.13222837 C318.55368301 -0.12369128 322.93482064 -0.12163453 327.31619358 -0.13687992 C331.3250915 -0.15065681 335.3335274 -0.14605491 339.34239811 -0.12664068 C340.79457724 -0.12285872 342.24679277 -0.12586547 343.69893967 -0.13625234 C345.66950116 -0.14934778 347.64018701 -0.13550075 349.61073303 -0.12025452 C351.25413781 -0.12009351 351.25413781 -0.12009351 352.93074268 -0.11992925 C356.56795581 0.49946607 358.23836463 1.84448779 360.86828709 4.38031673 C362.55649862 7.75673981 362.21561507 11.59665357 362.36828709 15.31781673 C362.45000298 17.12382061 362.53204299 18.92980985 362.61438084 20.73578548 C362.6554697 21.66439388 362.69655857 22.59300228 362.73889256 23.54975033 C362.94588741 28.07786048 363.1883439 32.60398902 363.43078709 37.13031673 C363.51547522 38.72927228 363.60011566 40.32823035 363.68469334 41.92719173 C363.74527927 43.06672298 363.80586521 44.20625423 363.86828709 45.38031673 C364.58242771 44.48184017 365.29656834 43.58336361 366.03234959 42.65766048 C376.56743526 30.05621942 393.76505374 22.19131866 409.86828709 20.38031673 C428.84805426 19.06401051 449.99292743 20.657425 465.11828709 33.44281673 C470.41481378 38.3112407 471.20738136 43.43016113 471.86828709 50.38031673 C471.96689112 52.90375131 472.02138881 55.42921892 472.03625584 57.95453548 C472.04049061 58.66325802 472.04472538 59.37198055 472.04908848 60.10217953 C472.05900498 62.42411855 472.05898925 64.74586007 472.05578709 67.06781673 C472.05488071 68.28140362 472.05488071 68.28140362 472.05395603 69.51950741 C471.89729292 147.76604373 466.61297507 252.54609559 408.06359959 321.27875423 C387.47062197 341.71871902 360.22290569 352.09137545 332.49328709 358.75531673 C331.79791843 358.92313656 331.10254978 359.09095638 330.38610935 359.26386166 C326.79731168 360.08434803 323.53778827 360.4471493 319.86828709 360.38031673 C319.7090073 360.98110043 319.54972752 361.58188412 319.38562107 362.20087337 C317.538755 368.78609924 315.02596112 374.72873326 311.93078709 380.81781673 C311.21052341 382.24190853 311.21052341 382.24190853 310.47570896 383.69476986 C300.19833916 403.65121496 287.35572989 421.20060778 271.86828709 437.38031673 C271.39810154 437.87773373 270.92791599 438.37515072 270.4434824 438.88764095 C262.85743095 446.88201406 254.77172535 453.88702963 245.86828709 460.38031673 C245.27145115 460.81618099 244.67461521 461.25204525 244.05969334 461.70111752 C220.89932712 478.38031673 220.89932712 478.38031673 211.86828709 478.38031673 C211.48383485 496.52233157 211.22709316 514.66154279 211.11957073 532.80729771 C211.06670454 541.23440569 210.97312866 549.6572785 210.78137302 558.08246517 C210.61420315 565.43207489 210.52579591 572.77785087 210.52930725 580.12943113 C210.52848238 584.01917235 210.49006691 587.8998189 210.35702991 591.78747082 C209.30532473 607.80194437 209.30532473 607.80194437 215.01032352 622.02029514 C220.19488387 626.5016177 225.92722651 629.4435442 232.18527222 632.14824009 C236.10496455 633.94821572 239.52517277 636.31502698 243.02453709 638.81391048 C244.25102519 639.65060097 245.47892526 640.48522935 246.70886326 641.31684017 C247.92876363 642.15036377 249.14856981 642.98402523 250.36828709 643.81781673 C251.69013373 644.71813859 253.01215884 645.61819848 254.33435154 646.51801205 C256.95437634 648.3016828 259.57316023 650.08715329 262.19104099 651.87396908 C265.56063618 654.17263406 268.93793859 656.4596193 272.31750584 658.74359798 C298.62374055 676.5384148 298.62374055 676.5384148 301.22180271 680.38349056 C303.81780311 684.07084233 305.54567207 686.09490023 310.06433201 687.070014 C313.89409737 687.28461182 317.65885401 687.28962668 321.49328709 687.19281673 C324.08954212 687.16598536 326.68595625 687.15117538 329.28234959 687.14984798 C330.42655369 687.1251141 331.57075779 687.10038021 332.74963474 687.07489681 C336.36961881 687.42941381 338.02883475 688.12102813 340.86828709 690.38031673 C344.0494915 694.54938936 345.45030562 697.73682818 346.14856052 702.91718197 C346.32844517 704.19548382 346.50832981 705.47378567 346.6936655 706.79082394 C346.8721322 708.17345915 347.05011936 709.55615632 347.22766209 710.93891048 C347.42250117 712.37104907 347.61858727 713.8030185 347.81585789 715.23482418 C348.22512834 718.22850976 348.62426436 721.22330165 349.01525974 724.21942806 C349.51465652 728.0453911 350.03157301 731.8687089 350.55517292 735.69142723 C351.05635346 739.35642699 351.54851155 743.02262234 352.04016209 746.68891048 C352.18055534 747.72690194 352.18055534 747.72690194 352.32378483 748.78586292 C352.58933915 750.76126822 352.84759931 752.73764985 353.10559177 754.71405697 C353.25341099 755.83513348 353.4012302 756.95620998 353.55352879 758.11125851 C354.5800477 768.7726139 354.5800477 768.7726139 350.86828709 773.38031673 C347.11322368 776.08865949 344.51618919 776.75683847 339.91584301 776.76622009 C338.71539998 776.77589343 337.51495694 776.78556677 336.27813685 776.79553324 C334.30525252 776.78856453 334.30525252 776.78856453 332.29251194 776.78145504 C330.87837343 776.78706029 329.46423957 776.79396278 328.05011308 776.80205101 C324.16413098 776.82041309 320.27834242 776.82000337 316.39232683 776.81646788 C312.20134554 776.81585606 308.01042654 776.83241012 303.81947422 776.84664059 C295.60881587 776.87156586 287.39822212 776.87980535 279.1875291 776.88147772 C272.51435744 776.88290286 265.8412071 776.88906535 259.16804218 776.8985796 C240.2522595 776.92500026 221.33652788 776.93883747 202.42072661 776.93658818 C200.89091651 776.93640837 200.89091651 776.93640837 199.33020115 776.93622494 C197.79852537 776.93604097 197.79852537 776.93604097 196.23590665 776.9358533 C179.68332453 776.93463367 163.13094708 776.96334804 146.57842417 777.00564004 C129.58622099 777.04871323 112.59411767 777.06945162 95.6018585 777.06685871 C86.06040867 777.0658622 76.51917341 777.07412917 66.97777271 777.10639286 C58.85475063 777.13368421 50.73204039 777.14025354 42.60899235 777.11986459 C38.46417666 777.11005664 34.31995953 777.10994092 30.17520046 777.13592434 C26.38006593 777.1594714 22.58600614 777.15527841 18.79089837 777.12907194 C16.76920838 777.12227067 14.74748549 777.14499304 12.72592413 777.16879088 C6.08076793 777.09275015 1.79478878 776.76307415 -3.01426154 771.93294114 C-4.74972921 769.52162416 -4.88369306 767.8008953 -4.67199612 764.86762142 C-4.57623791 763.29724117 -4.57623791 763.29724117 -4.47854519 761.69513607 C-4.36409054 760.60124569 -4.24963589 759.50735531 -4.13171291 758.38031673 C-4.0270068 757.29641659 -3.92230068 756.21251644 -3.81442165 755.09577084 C-3.42882982 751.58209826 -2.96894754 748.08518504 -2.48718166 744.58344173 C-2.31672832 743.30982784 -2.14627499 742.03621395 -1.97065639 740.7240057 C-1.61186895 738.05091961 -1.24729294 735.37870569 -0.87853909 732.70697689 C-0.40943986 729.30404228 0.04382944 725.8992129 0.4926815 722.49355602 C0.92791718 719.2097849 1.37732406 715.92799667 1.82531834 712.64594173 C1.98482471 711.43432369 2.14433109 710.22270565 2.308671 708.97437191 C4.47084492 693.53752701 4.47084492 693.53752701 9.62878513 688.89643002 C13.32646208 687.16588711 15.6389868 686.97404533 19.70031834 687.12250423 C20.99389256 687.13539486 22.28746677 687.14828548 23.62024021 687.16156673 C25.64905982 687.20072841 27.67418906 687.25503295 29.70153904 687.3422308 C37.97429062 687.82286096 37.97429062 687.82286096 45.22522068 684.51801205 C46.63845449 682.81750795 48.00989657 681.08176317 49.34729099 679.32099056 C52.42835429 675.72701348 55.80046613 673.25435594 59.68469334 670.58734798 C60.41065708 670.0883952 61.13662083 669.58944241 61.88458347 669.07536983 C64.20446587 667.49808794 66.53507555 665.93780219 68.86828709 664.38031673 C70.48937902 663.28859605 72.11030789 662.19663319 73.73108006 661.10443783 C78.74237504 657.73829267 83.77264303 654.40116879 88.80578709 651.06781673 C92.19096148 648.82331634 95.57510879 646.5772787 98.95813084 644.32953548 C99.75738483 643.79856258 100.55663883 643.26758968 101.38011265 642.7205267 C106.20338171 639.50918385 110.98048872 636.2428414 115.70983982 632.89423275 C119.5662651 630.18936982 123.50162247 627.60283979 127.43078709 625.00531673 C129.01611931 623.95689046 130.60079246 622.90746665 132.18469334 621.85687923 C132.86991062 621.4039349 133.55512791 620.95099056 134.26110935 620.48432064 C135.83277824 619.47665093 135.83277824 619.47665093 136.86828709 618.38031673 C136.96467893 616.58337636 136.99016134 614.78260781 136.9885416 612.98308468 C136.98991627 611.8121426 136.99129093 610.64120052 136.99270725 609.43477535 C136.98911198 608.13861797 136.9855167 606.84246059 136.98181248 605.50702572 C136.98153061 604.13743752 136.98168834 602.76784918 136.98225498 601.39826107 C136.98254296 597.66908725 136.97664617 593.93994533 136.96968102 590.21077895 C136.96344755 586.31767261 136.96284369 582.4245656 136.96165562 578.53145504 C136.95854228 571.15433527 136.95032886 563.77723024 136.94030613 556.40011698 C136.92914506 548.00364131 136.92363456 539.60716494 136.91861069 531.2106837 C136.90814625 513.93388617 136.89054677 496.65710301 136.86828709 479.38031673 C135.7302866 478.85864925 134.59228611 478.33698177 133.41980076 477.79950619 C131.8959948 477.09363843 130.37232016 476.38748715 128.84875584 475.68109798 C128.10234837 475.33985897 127.3559409 474.99861996 126.58691502 474.64704037 C118.78482245 471.01594437 111.80564427 466.44526835 104.86828709 461.38031673 C104.29014256 460.95911556 103.71199802 460.53791439 103.11633396 460.10394955 C71.23918059 436.58241981 42.74499085 401.26754126 29.86828709 363.38031673 C29.86828709 362.39031673 29.86828709 361.40031673 29.86828709 360.38031673 C29.21634373 360.34510921 28.56440037 360.3099017 27.89270115 360.27362728 C20.49902989 359.75345306 13.72400968 358.25615852 6.61828709 356.19281673 C5.52000584 355.87747982 4.42172459 355.56214291 3.29016209 355.23725033 C-32.1505194 344.85685025 -62.3693403 324.62447509 -80.56628323 291.79193783 C-107.06519276 242.09117779 -115.21401849 183.77180914 -120.13171291 128.38031673 C-120.19229885 127.70623775 -120.25288479 127.03215878 -120.31530666 126.33765316 C-122.01420533 107.19849785 -122.34824134 88.08481615 -122.44421291 68.88031673 C-122.45865444 67.22680706 -122.45865444 67.22680706 -122.47338772 65.53989315 C-122.49717494 62.37190309 -122.49941209 59.20462933 -122.49499416 56.03656673 C-122.5041032 55.09411602 -122.51321224 54.15166531 -122.52259731 53.18065548 C-122.47589875 46.35955741 -121.60702286 39.79206924 -117.51061916 34.14594173 C-102.06237916 21.25579739 -80.51025494 19.07430807 -61.13171291 20.38031673 C-42.15291022 22.66625696 -27.46625287 31.97789185 -14.13171291 45.38031673 C-14.11713039 44.28566097 -14.10254787 43.19100521 -14.08752346 42.06317806 C-14.02942553 37.99074768 -13.95219364 33.91886359 -13.86926174 29.84686947 C-13.83606637 28.08654319 -13.80801767 26.32611185 -13.78527737 24.56561947 C-13.75163171 22.03074148 -13.69931231 19.4968215 -13.64343166 16.96234798 C-13.63704174 16.17882458 -13.63065182 15.39530117 -13.62406826 14.58803463 C-13.50187785 10.01756628 -13.00918436 6.9831874 -10.13171291 3.38031673 C-6.81190643 0.27899197 -4.48555506 0.00421403 0 0 Z M-77.13171291 67.38031673 C-76.0889177 125.30442218 -71.90164669 184.38096005 -56.13171291 240.38031673 C-55.92723537 241.10831478 -55.72275784 241.83631283 -55.51208401 242.58637142 C-48.81967439 265.78449952 -36.41411225 285.97185698 -15.20300198 298.25141048 C-11.42846442 300.30863133 -7.55207459 302.12012163 -3.63171291 303.88031673 C-2.87841702 304.21869564 -2.12512112 304.55707455 -1.34899807 304.90570736 C2.71852014 306.661 6.42507721 307.87412827 10.86828709 308.38031673 C10.75347996 307.8429388 10.63867283 307.30556087 10.5203867 306.75189877 C2.08017221 266.83096243 -3.65130521 226.68367353 -6.69421291 186.00531673 C-6.75866604 185.16996395 -6.82311916 184.33461117 -6.88952541 183.47394466 C-7.69652279 172.85032863 -8.19726947 162.25262025 -8.3798666 151.59928036 C-8.46420482 146.70093705 -8.59574081 141.80405662 -8.73389816 136.90696812 C-8.82717965 133.44815801 -8.89163083 129.99361435 -8.89004421 126.53345394 C-8.37949456 109.23513802 -8.37949456 109.23513802 -16.28399563 94.65686703 C-19.40003798 91.93465846 -22.66662252 89.63109491 -26.13171291 87.38031673 C-27.48276507 86.40609318 -28.82836656 85.42426084 -30.16808987 84.43451595 C-43.49088183 74.61772187 -60.39682575 66.9063439 -77.13171291 67.38031673 Z M364.86828709 97.38031673 C364.10516209 97.95266048 363.34203709 98.52500423 362.55578709 99.11469173 C358.09155817 105.10833241 359.56788173 116.51592 359.25500584 123.75922298 C359.14309564 126.20757209 359.03060359 128.65589465 358.91760349 131.10419369 C358.85905186 132.38186611 358.80050022 133.65953854 358.74017429 134.97592831 C356.33918784 186.63051727 352.38853799 237.83000673 342.4591074 288.63764095 C342.28770741 289.51954098 342.11630741 290.401441 341.93971348 291.31006527 C341.61785168 292.95871676 341.29166543 294.60653234 340.96031284 296.25330257 C340.22420376 300.01139403 339.67653693 303.54626517 339.86828709 307.38031673 C358.70892784 304.77203952 377.272095 292.23640956 388.74719334 277.42719173 C415.5531096 238.92145566 418.60300164 181.89878043 422.86828709 136.38031673 C422.94347569 135.58093685 423.01866428 134.78155697 423.09613132 133.95795345 C425.16845293 111.72248781 426.36635901 89.71692675 425.86828709 67.38031673 C401.94372604 66.58588687 381.21048274 81.49207096 364.86828709 97.38031673 Z " fill="#000000" transform="translate(345.1317129135132,124.61968326568604)"/>
</svg>
