<?xml version="1.0" encoding="UTF-8"?>
<svg version="1.1" xmlns="http://www.w3.org/2000/svg" width="1024" height="1024">
<path d="M0 0 C2.53397085 1.40590469 5.11779717 2.69989171 7.71435547 3.98583984 C9.14328125 4.69933594 9.14328125 4.69933594 10.60107422 5.42724609 C12.99173416 6.600522 15.38893269 7.75043362 17.79638672 8.88818359 C24.53036407 12.1067146 30.63093973 15.09285097 36.05810547 20.32958984 C40.88016591 24.97630263 46.53004441 28.57421808 52.30810547 31.90771484 C52.79279297 32.26349609 53.27748047 32.61927734 53.77685547 32.98583984 C53.77685547 33.64583984 53.77685547 34.30583984 53.77685547 34.98583984 C54.33501953 35.24494141 54.89318359 35.50404297 55.46826172 35.77099609 C58.05424913 37.13181181 60.33930093 38.72164437 62.71435547 40.42333984 C65.22448448 42.21961455 67.67603933 43.92873101 70.36279297 45.45068359 C72.95057301 47.09631071 74.55697402 48.7191121 76.46435547 51.11083984 C77.04572266 51.81466797 77.62708984 52.51849609 78.22607422 53.24365234 C81.9950622 59.90821043 82.06752135 67.48761654 82.01977539 74.97192383 C82.02167374 75.9258754 82.02357208 76.87982697 82.02552795 77.86268616 C82.02920445 80.98585477 82.0185806 84.10878601 82.00732422 87.23193359 C82.00613107 89.41146314 82.00567954 91.59099321 82.00593567 93.77052307 C82.00437649 98.32206473 81.99612645 102.8735271 81.98266602 107.42504883 C81.96560617 113.2684029 81.961854 119.11167059 81.9626112 124.95504665 C81.9623399 129.44760467 81.95686633 133.94014368 81.94960976 138.43269539 C81.94642231 140.58855101 81.9444555 142.74440879 81.94371605 144.90026665 C81.9415573 147.90205471 81.93282524 150.90374944 81.92211914 153.90551758 C81.92257233 154.80056 81.92302551 155.69560242 81.92349243 156.61776733 C81.89133939 162.756872 81.89133939 162.756872 80.77685547 164.98583984 C80.66101798 166.90697104 80.60982509 168.83210209 80.58740234 170.7565918 C80.57064453 171.99934372 80.55388672 173.24209564 80.53662109 174.52250671 C80.52281823 175.92304356 80.50915182 177.32358175 80.49560547 178.72412109 C80.47774154 180.21788466 80.45950087 181.71164376 80.44091797 183.20539856 C80.39070723 187.35754284 80.34708319 191.50973547 80.30453491 195.66196442 C80.26748189 199.19114186 80.22635193 202.72026744 80.1853714 206.24940109 C79.91815888 229.39557981 79.72744607 252.54232056 79.5582428 275.68939018 C79.53219264 279.25278701 79.50575845 282.81618085 79.47917795 286.37957376 C79.45262176 289.94128063 79.42623771 293.50298876 79.39990234 297.06469727 C79.39468535 297.76957389 79.38946836 298.47445052 79.38409328 299.20068705 C79.32128073 307.71281 79.26242229 316.2249446 79.20922756 324.7371332 C79.17115291 330.80164172 79.12853655 336.86610993 79.08447266 342.93057823 C79.06705369 345.44961121 79.05131572 347.96865644 79.03735352 350.48771095 C79.01796355 353.95995097 78.99279523 357.43210479 78.96630859 360.90429688 C78.96212166 361.91571904 78.95793472 362.92714121 78.95362091 363.96921253 C78.91792326 368.00966672 78.84390566 371.95873043 78.27210999 375.96188354 C77.54617885 381.11256595 77.64549253 386.25823435 77.66333008 391.45068359 C77.66311104 393.13492683 77.66311104 393.13492683 77.66288757 394.85319519 C77.66358104 398.54326345 77.67134687 402.23328046 77.67919922 405.92333984 C77.68106541 408.49023409 77.68248836 411.0571287 77.68348694 413.62402344 C77.68690748 419.67635544 77.69477905 425.72866647 77.70483643 431.7809906 C77.7160433 438.67584288 77.72151951 445.57069606 77.72653186 452.46555519 C77.736963 466.63899317 77.75453383 480.81241586 77.77685547 494.98583984 C79.27925781 494.9684375 79.27925781 494.9684375 80.81201172 494.95068359 C82.15445775 494.94129586 83.49690583 494.93219672 84.83935547 494.92333984 C86.15033203 494.91173828 87.46130859 494.90013672 88.81201172 494.88818359 C92.55824305 494.9804553 96.07971122 495.40549001 99.77685547 495.98583984 C101.20683408 496.10420867 102.63889529 496.2015195 104.07226562 496.26708984 C104.83640778 496.30382812 105.60054993 496.34056641 106.3878479 496.37841797 C107.18911102 496.41386719 107.99037415 496.44931641 108.81591797 496.48583984 C110.54768904 496.56916822 112.27945987 496.6525017 114.01123047 496.73583984 C116.71463515 496.86185434 119.41809587 496.98658626 122.12158203 497.11083984 C124.74901789 497.23273611 127.37621014 497.35913807 130.00341797 497.48583984 C130.80872955 497.52128906 131.61404114 497.55673828 132.4437561 497.59326172 C136.33597432 497.78194774 139.95432948 498.20446768 143.77685547 498.98583984 C146.05480604 499.11960372 148.33556059 499.20914051 150.61669922 499.26708984 C151.92703125 499.30447266 153.23736328 499.34185547 154.58740234 499.38037109 C155.963041 499.41600855 157.33869232 499.45116062 158.71435547 499.48583984 C161.41115817 499.55400044 164.10760818 499.62773369 166.80419922 499.70458984 C167.99779053 499.73488281 169.19138184 499.76517578 170.42114258 499.79638672 C173.61300005 499.97658908 176.63123216 500.43684336 179.77685547 500.98583984 C181.31135124 501.09878255 182.84838154 501.18239551 184.38623047 501.23193359 C185.21904541 501.26335449 186.05186035 501.29477539 186.90991211 501.32714844 C188.20529907 501.37476318 188.20529907 501.37476318 189.52685547 501.42333984 C207.61723415 502.22691935 207.61723415 502.22691935 211.39794922 505.30615234 C219.11378076 514.70504062 218.28509672 530.90677353 218.46435547 542.48583984 C218.49662132 543.99708705 218.52967326 545.50831765 218.56347656 547.01953125 C218.65490279 551.34141917 218.71876762 555.66339633 218.77685547 559.98583984 C218.79345215 561.04899414 218.81004883 562.11214844 218.82714844 563.20751953 C218.9040412 568.71531961 218.89483053 574.21733214 218.81835938 579.72509766 C218.78794019 582.11497169 218.76831666 584.50498967 218.75488281 586.89501953 C218.65403867 604.01154043 217.90833258 620.84193767 215.46435547 637.79833984 C215.36361725 638.50970093 215.26287903 639.22106201 215.15908813 639.95397949 C211.40302641 665.96219974 211.40302641 665.96219974 205.77685547 673.98583984 C202.2729351 675.73780003 198.20036776 675.33631812 194.33154297 675.50927734 C191.36189527 675.90740594 189.57795062 676.40413059 186.90185547 677.54052734 C182.40114432 679.32771648 178.66799578 679.13727801 173.90185547 678.73583984 C161.32571327 677.9121393 148.75061893 677.67150842 136.15264893 677.43249512 C133.45829397 677.38073209 130.7640717 677.32413697 128.06982422 677.26708984 C127.26730728 677.25353455 126.46479034 677.23997925 125.63795471 677.22601318 C124.8680571 677.20927551 124.09815948 677.19253784 123.30493164 677.17529297 C122.64514816 677.16276489 121.98536469 677.15023682 121.30558777 677.1373291 C119.22739669 677.0128305 117.1562238 676.77621785 115.09150696 676.50915527 C107.50412544 675.6386303 99.84292109 675.61691815 92.21435547 675.42333984 C90.61734092 675.38006339 89.02033556 675.33644648 87.42333984 675.29248047 C83.54127324 675.18633915 79.65911115 675.08481365 75.77685547 674.98583984 C75.77962085 676.13512293 75.77962085 676.13512293 75.78244209 677.30762386 C75.82709049 696.16546006 75.85993575 715.02328537 75.88047981 733.8811636 C75.89068506 743.00160599 75.90459562 752.12201217 75.92773438 761.24243164 C76.10206551 831.52963952 76.10206551 831.52963952 74.95654297 856.20849609 C74.90435293 857.44350263 74.90435293 857.44350263 74.85110855 858.70345879 C74.75221088 860.92401348 74.63291884 863.1421581 74.50292969 865.36108398 C74.43564667 866.53981583 74.36836365 867.71854767 74.29904175 868.93299866 C73.41929876 874.07621237 70.61400592 877.36373874 67.15185547 881.11083984 C64.08583503 884.49132391 61.14846687 887.93855517 58.27685547 891.48583984 C55.56136642 894.83617872 52.80263231 898.10748532 49.90185547 901.29833984 C45.93628836 905.69304648 42.31388654 910.32601352 38.72070312 915.02612305 C35.95354482 918.61428961 33.0419423 921.82805634 29.77685547 924.98583984 C28.92607422 925.85982422 28.07529297 926.73380859 27.19873047 927.63427734 C22.44004502 932.49036279 17.67286979 937.0442613 12.21435547 941.11865234 C9.19164226 943.43412817 6.29713172 945.88978762 3.40185547 948.36083984 C-0.66365007 951.82800786 -4.75629232 955.24975149 -8.91064453 958.61083984 C-15.06806785 963.62601651 -20.94177121 968.93233967 -26.75439453 974.34130859 C-37.4093397 984.15767011 -44.23332027 988.34572103 -58.7905426 987.81985474 C-59.8730278 987.77408295 -60.955513 987.72831116 -62.07080078 987.68115234 C-63.20086044 987.63771698 -64.3309201 987.59428162 -65.495224 987.54953003 C-67.87641205 987.45662257 -70.25748122 987.36062283 -72.63842773 987.26171875 C-76.27643019 987.11122102 -79.91473065 986.97159514 -83.55322266 986.83349609 C-85.87160761 986.74169175 -88.189968 986.64926489 -90.50830078 986.55615234 C-91.59281021 986.51442902 -92.67731964 986.47270569 -93.79469299 986.42971802 C-98.69303462 986.22188829 -103.39517838 985.8844985 -108.22314453 984.98583984 C-110.32645047 984.79379669 -112.43230466 984.62828364 -114.53955078 984.48583984 C-115.71582031 984.40333984 -116.89208984 984.32083984 -118.10400391 984.23583984 C-120.56231932 984.06890914 -123.02065274 983.90224331 -125.47900391 983.73583984 C-126.65398437 983.65333984 -127.82896484 983.57083984 -129.03955078 983.48583984 C-130.10633057 983.41365234 -131.17311035 983.34146484 -132.2722168 983.26708984 C-134.9873856 983.00830979 -137.55580065 982.53793346 -140.22314453 981.98583984 C-142.87137449 981.78866036 -145.50945215 981.61876871 -148.16064453 981.48583984 C-155.49411491 981.11608503 -155.49411491 981.11608503 -158.91796875 980.50439453 C-162.94981495 979.87183128 -166.94419008 979.6318804 -171.01611328 979.40771484 C-172.83319388 979.30060618 -174.65024999 979.19308161 -176.46728516 979.08520508 C-177.43255127 979.02871796 -178.39781738 978.97223083 -179.39233398 978.91403198 C-199.69572868 977.71537954 -219.95958078 976.16653225 -240.22314453 974.42333984 C-242.06844254 974.26460388 -242.06844254 974.26460388 -243.95101929 974.10266113 C-254.15636607 973.22217375 -264.36040051 972.32690732 -274.56396484 971.42602539 C-285.02911078 970.50473782 -295.49127531 969.6340798 -305.97314453 968.92333984 C-318.58946196 968.05989278 -318.58946196 968.05989278 -324.80908203 967.45849609 C-331.57655016 966.82419976 -338.35413883 966.61544004 -345.14501953 966.38037109 C-346.60294922 966.32429687 -346.60294922 966.32429687 -348.09033203 966.26708984 C-349.39139893 966.22165039 -349.39139893 966.22165039 -350.71875 966.17529297 C-353.28908254 965.98085175 -355.69931088 965.4977874 -358.22314453 964.98583984 C-359.68703657 964.87037199 -361.15394171 964.78816746 -362.62158203 964.73974609 C-363.43111328 964.706875 -364.24064453 964.67400391 -365.07470703 964.64013672 C-366.74905852 964.57922765 -368.4235444 964.52190125 -370.09814453 964.46826172 C-375.13559455 964.25636898 -379.36072546 963.40359618 -384.22314453 961.98583984 C-389.75731688 961.13741346 -395.22426358 960.89908145 -400.81350708 961.05255127 C-410.60621519 961.27775231 -420.18629063 960.62526686 -429.92626953 959.63427734 C-432.77564378 959.35389979 -435.62552275 959.07894267 -438.47558594 958.80566406 C-439.20057722 958.73600559 -439.9255685 958.66634712 -440.67252922 958.59457779 C-448.27877866 957.87180971 -455.89327951 957.27569352 -463.51220703 956.70458984 C-464.18385517 956.65396267 -464.85550331 956.60333549 -465.54750443 956.55117416 C-470.99693923 956.14073556 -476.44683744 955.73662886 -481.89691162 955.33477783 C-486.66483388 954.98312848 -491.43246444 954.62784208 -496.19970703 954.26708984 C-496.86366674 954.21695236 -497.52762646 954.16681488 -498.21170616 954.11515808 C-509.57569301 953.25071048 -520.9098082 952.17510383 -532.24246216 950.96936035 C-539.21699076 950.23690152 -546.15190127 949.72035503 -553.16064453 949.48583984 C-560.73135797 949.19448893 -568.2027841 948.54209529 -575.72314453 947.61083984 C-576.69759521 947.49675781 -577.6720459 947.38267578 -578.67602539 947.26513672 C-587.81180538 946.0587525 -587.81180538 946.0587525 -591.22314453 942.98583984 C-593.06329198 938.52420322 -593.51269994 934.60468899 -593.62608337 929.8026123 C-593.64461856 929.11174058 -593.66315376 928.42086885 -593.68225062 927.70906162 C-593.74043793 925.4335983 -593.78478857 923.15811072 -593.82836914 920.88232422 C-593.86559703 919.26468614 -593.90329198 917.64705875 -593.94142818 916.02944183 C-594.30902642 899.71512053 -594.44178572 883.39848316 -594.52644229 867.08063745 C-594.54452278 863.71715821 -594.56551227 860.35369926 -594.58646661 856.99023688 C-594.64851804 847.02871401 -594.70325767 837.06716028 -594.75577545 827.10558319 C-594.78562233 821.45394741 -594.81713722 815.80232156 -594.84881592 810.1506958 C-595.11807607 761.8777146 -595.32591517 713.60469685 -595.34525794 665.33090949 C-595.34715753 660.71515136 -595.3511903 656.09939853 -595.35598755 651.48364258 C-595.36180569 645.34736453 -595.36202804 639.21111188 -595.35752678 633.07483292 C-595.35650333 630.87240744 -595.35701534 628.66998055 -595.35928535 626.467556 C-595.39457641 585.41112076 -595.39457641 585.41112076 -586.22314453 573.98583984 C-585.08824049 571.84573508 -584.00798395 569.67608251 -582.97314453 567.48583984 C-580.07476725 561.4873696 -576.76960507 555.87365402 -573.21142578 550.23583984 C-570.52536422 545.84526378 -568.14237653 541.32944719 -565.76611328 536.76318359 C-564.22314453 533.98583984 -564.22314453 533.98583984 -562.66929626 532.14788437 C-556.96745605 523.62344525 -560.10002361 504.86386797 -560.12548828 494.90673828 C-560.12741038 492.69285109 -560.1288728 490.47896346 -560.12991333 488.26507568 C-560.13305995 483.52076143 -560.13930656 478.77646524 -560.14797974 474.0321579 C-560.16156147 466.52634316 -560.16740848 459.0205343 -560.17211914 451.51470947 C-560.17943603 440.99043386 -560.18953763 430.4661644 -560.20263672 419.94189453 C-560.20387844 418.94264459 -560.20387844 418.94264459 -560.20514524 417.92320779 C-560.21104636 413.19408501 -560.21708166 408.46496241 -560.22314453 403.73583984 C-560.23007655 398.32666027 -560.23694284 392.91748063 -560.24365234 387.50830078 C-560.24448047 386.84174381 -560.2453086 386.17518685 -560.24616182 385.48843119 C-560.2598638 374.36074648 -560.26957195 363.23306087 -560.27656269 352.10536981 C-560.28153754 344.64731848 -560.29138538 337.18929445 -560.30499268 329.7312541 C-560.31246132 325.09174364 -560.31576966 320.45223692 -560.31795883 315.81272125 C-560.31982777 313.66533687 -560.32342259 311.51795318 -560.32889175 309.37057495 C-560.3361347 306.43386127 -560.33714437 303.49720698 -560.33666992 300.56048584 C-560.34026488 299.71621465 -560.34385984 298.87194347 -560.34756374 298.00208831 C-560.3394193 293.2781539 -560.05029973 288.68856859 -559.44157505 284.0027411 C-559.08433961 280.70416991 -559.20449311 277.44598418 -559.30908203 274.13427734 C-559.34094101 273.07957748 -559.34094101 273.07957748 -559.3734436 272.00357056 C-559.41925141 270.53304389 -559.46813335 269.06260991 -559.52001953 267.59228516 C-559.59820666 265.35906532 -559.66531994 263.12571022 -559.73095703 260.89208984 C-559.91990802 253.29003417 -559.91990802 253.29003417 -560.72903252 245.73793316 C-561.23562066 241.89110098 -561.36274596 238.14143739 -561.35012817 234.27119446 C-561.35168816 233.52542859 -561.35324816 232.77966272 -561.35485542 232.01129788 C-561.35882361 229.52793787 -561.35569176 227.0446397 -561.35253906 224.5612793 C-561.3538952 222.77318791 -561.35567633 220.98509681 -561.35784912 219.19700623 C-561.36240506 214.34444882 -561.3606396 209.49191271 -561.35747004 204.63935494 C-561.35492873 199.5328594 -561.35728966 194.42636562 -561.3588562 189.31987 C-561.36067619 180.72260209 -561.35827965 172.12534277 -561.35351562 163.52807617 C-561.34810968 153.65996932 -561.34980941 143.79188325 -561.35534203 133.92377692 C-561.35992179 125.40776785 -561.36049914 116.89176493 -561.35790336 108.37575501 C-561.35636235 103.31008865 -561.35608508 98.24443195 -561.35943985 93.17876625 C-561.37957008 57.15748446 -561.37957008 57.15748446 -560.90234375 39.97485352 C-560.88037996 38.89665753 -560.85841618 37.81846155 -560.83578682 36.70759296 C-560.57463351 29.18795467 -560.22150925 20.22731522 -554.91064453 14.48583984 C-554.02376953 13.99083984 -553.13689453 13.49583984 -552.22314453 12.98583984 C-551.33626953 12.44958984 -550.44939453 11.91333984 -549.53564453 11.36083984 C-541.88311057 8.18431631 -533.83274278 7.66214428 -525.63183594 7.42333984 C-524.11633652 7.36919922 -524.11633652 7.36919922 -522.57022095 7.31396484 C-519.23859889 7.19684441 -515.90671524 7.09135162 -512.57470703 6.98583984 C-510.20247866 6.90455845 -507.83027643 6.82251117 -505.45809937 6.73974609 C-499.18848021 6.52290638 -492.91857891 6.31573851 -486.64855957 6.11083984 C-480.47142262 5.90766674 -474.2945527 5.69674846 -468.11767578 5.48583984 C-465.67218057 5.40241367 -463.22668496 5.31899896 -460.78118896 5.2355957 C-459.57184441 5.19433563 -458.36249985 5.15307556 -457.11650848 5.11056519 C-453.44311553 4.98561564 -449.76968809 4.86172453 -446.09625244 4.73803711 C-429.41554059 4.1746865 -412.73685259 3.56785356 -396.05908203 2.92333984 C-395.01689137 2.88313721 -393.9747007 2.84293457 -392.9009285 2.80151367 C-382.86918244 2.41351044 -372.83810397 2.01378731 -362.80795956 1.5862751 C-352.79726182 1.16068625 -342.79099852 0.79670348 -332.77392578 0.55615234 C-330.69461471 0.50317934 -328.61532956 0.44925451 -326.53604412 0.39528561 C-325.09155578 0.3577968 -323.64706278 0.32048753 -322.20256519 0.28335667 C-293.56777283 -0.45280709 -264.9579114 -1.46909294 -236.34365845 -2.7767334 C-232.10562654 -2.97040556 -227.86755052 -3.16306532 -223.62939453 -3.35400391 C-222.95582098 -3.38435856 -222.28224743 -3.41471321 -221.58826256 -3.4459877 C-207.9686287 -4.05583611 -194.34812128 -4.47381798 -180.71728516 -4.72338867 C-180.01510864 -4.73720078 -179.31293213 -4.75101288 -178.58947754 -4.76524353 C-176.78775025 -4.79960646 -174.98591805 -4.82835605 -173.18408203 -4.85644531 C-169.79574357 -4.99136066 -166.44348798 -5.22293113 -163.06445312 -5.49609375 C-156.50753535 -6.01822281 -149.96052162 -6.30079792 -143.38720703 -6.51416016 C-141.00048672 -6.59744883 -138.61376802 -6.68078349 -136.22705078 -6.76416016 C-132.52087195 -6.89034473 -128.81465499 -7.01527954 -125.10839844 -7.13916016 C-121.49288454 -7.26099398 -117.87755004 -7.38737111 -114.26220703 -7.51416016 C-113.15793365 -7.54960937 -112.05366028 -7.58505859 -110.91592407 -7.62158203 C-105.60571011 -7.80941387 -100.48271531 -8.21861225 -95.22314453 -9.01416016 C-93.35769948 -9.05471688 -91.49089203 -9.05266777 -89.62548828 -9.01025391 C-83.74497071 -8.96232176 -77.90959946 -9.17943869 -72.03955078 -9.48681641 C-70.67447891 -9.5569545 -70.67447891 -9.5569545 -69.28182983 -9.62850952 C-65.49980044 -9.82472883 -61.71804173 -10.0248026 -57.93676758 -10.23510742 C-36.51522501 -11.41483385 -18.9981524 -10.70840925 0 0 Z " fill="currentColor" transform="translate(700.22314453125,26.01416015625)"/>
</svg>
