<?xml version="1.0" encoding="UTF-8"?>
<svg version="1.1" xmlns="http://www.w3.org/2000/svg" width="1024" height="1024">
<path d="M0 0 C1.98154285 0.03793823 3.96185364 0.15510606 5.9375 0.3125 C7.01902344 0.39113281 8.10054687 0.46976563 9.21484375 0.55078125 C12 1 12 1 14 3 C15.155 3.12375 16.31 3.2475 17.5 3.375 C18.655 3.58125 19.81 3.7875 21 4 C21.66666667 5.33333333 22.33333333 6.66666667 23 8 C24.57201172 8.15082031 24.57201172 8.15082031 26.17578125 8.3046875 C30.71165587 9.12939198 32.99997435 11.0079398 36.1875 14.125 C36.69474609 14.58648437 37.20199219 15.04796875 37.72460938 15.5234375 C43.74577286 21.20879031 46.54394146 26.94563998 47.05078125 35.2578125 C46.99047785 38.51419612 46.31612781 41.29070025 45.48828125 44.421875 C42.85202229 58.34132233 45.93048795 69.56157788 52.34375 81.66796875 C55.72239229 88.46509582 57.01712583 94.45185569 56 102 C53.92985114 107.7867882 50.72497494 110.65105419 45.26074219 113.23901367 C41.36989547 114.54870797 37.67077862 114.20341206 33.625 113.9375 C26.14665747 113.6857137 20.04613537 114.04842362 14 119 C11.58162245 121.84734426 10.42882138 124.25328126 9.5 127.859375 C9.2525 128.81199219 9.005 129.76460937 8.75 130.74609375 C8.5025 131.73738281 8.255 132.72867188 8 133.75 C7.62875 135.16732422 7.62875 135.16732422 7.25 136.61328125 C3.23970018 152.2994019 0.94860753 168.32712488 -1.5 184.3125 C-1.94601723 187.20820731 -2.39276709 190.10380098 -2.83955383 192.99938965 C-3.13257781 194.89931312 -3.42521474 196.79929633 -3.717453 198.69934082 C-4.79362134 205.69046022 -5.89071986 212.67810218 -7.00708008 219.66291809 C-9.87399294 237.68229517 -10.35463127 254.15775972 -8.0625 272.25 C-7.87752763 273.75251477 -7.69327955 275.2551189 -7.50976562 276.7578125 C-7.16222822 279.59871641 -6.81127568 282.43916113 -6.45751953 285.27929688 C-5.93651613 289.51627222 -5.45612746 293.75561391 -5 298 C-5.67804688 298.4846875 -6.35609375 298.969375 -7.0546875 299.46875 C-14.96888331 305.16872482 -22.67643034 311.05404819 -30 317.5 C-33 320 -33 320 -35 320 C-35.40412109 320.85658203 -35.40412109 320.85658203 -35.81640625 321.73046875 C-37.03669842 324.07036891 -38.44280919 326.13807206 -39.9375 328.3125 C-45.42762099 336.83995306 -49.43864897 346.16241033 -53.73681641 355.32714844 C-55.86028416 359.82033069 -58.09038906 364.25604296 -60.33203125 368.69140625 C-61.53041097 371.06852012 -62.715082 373.44965727 -63.88671875 375.83984375 C-67.65646214 383.50529968 -71.61707086 391.01180499 -75.86157227 398.42578125 C-77.82102612 401.85810465 -79.65266759 405.28484398 -81.3125 408.875 C-85.32266251 417.07385965 -90.84428308 424.49556759 -96 432 C-96.52110352 432.76425293 -97.04220703 433.52850586 -97.57910156 434.31591797 C-103.06121255 442.33923376 -108.54786554 450.06314069 -115.2578125 457.1171875 C-117.1709755 459.08534257 -117.1709755 459.08534257 -119 462 C-119.66 462 -120.32 462 -121 462 C-121.23251465 462.55776123 -121.4650293 463.11552246 -121.70458984 463.69018555 C-123.33623639 466.59953496 -125.36172126 468.60348491 -127.7265625 470.95703125 C-128.1930722 471.42308273 -128.65958191 471.88913422 -129.14022827 472.36930847 C-130.1280674 473.35413345 -131.11832895 474.33653381 -132.11083984 475.31665039 C-133.60433047 476.79208043 -135.0898575 478.2751574 -136.57421875 479.75976562 C-141.88076433 485.04636847 -147.2873168 490.15418326 -153 495 C-153.86238281 495.75555176 -153.86238281 495.75555176 -154.7421875 496.52636719 C-158.76150519 500 -158.76150519 500 -161 500 C-161 500.66 -161 501.32 -161 502 C-162.36328125 503.3046875 -162.36328125 503.3046875 -164.3125 504.875 C-172.39979143 511.75780122 -179.43448493 519.86809169 -185.66015625 528.453125 C-186.32337891 529.21882812 -186.32337891 529.21882812 -187 530 C-187.66 530 -188.32 530 -189 530 C-189.26296875 530.55429687 -189.5259375 531.10859375 -189.796875 531.6796875 C-191.1402376 534.27045822 -192.66429342 536.6750119 -194.25 539.125 C-206.72926458 558.63989935 -217.24747059 578.96274953 -225.16699219 600.73388672 C-226.75964449 605.06653581 -228.41517273 609.37541277 -230.0625 613.6875 C-230.37888428 614.51781738 -230.69526855 615.34813477 -231.02124023 616.20361328 C-232.40152282 619.82415436 -233.78330466 623.44369819 -235.18969727 627.05419922 C-240.18187994 639.90011512 -244.589187 652.94611494 -249 666 C-249.33370605 666.98355469 -249.66741211 667.96710937 -250.01123047 668.98046875 C-257.89048033 692.37212213 -264.31515326 716.24709414 -271 740 C-271.23705658 740.84048889 -271.47411316 741.68097778 -271.71835327 742.54693604 C-274.61506372 752.82831693 -277.36391796 763.13219714 -279.9375 773.5 C-280.10575287 774.17478394 -280.27400574 774.84956787 -280.44735718 775.5447998 C-283.0813183 786.1127865 -285.60264233 796.70386807 -288.00952148 807.32617188 C-289.57737983 814.24336295 -291.25778848 821.1247653 -293 828 C-301.13893196 860.14994997 -301.13893196 860.14994997 -308.63208008 892.45458984 C-311.19865698 904.0265757 -314.05023552 915.52032248 -317 927 C-328.94561673 923.45574594 -340.71135428 919.61913465 -352.29296875 915.015625 C-354.52855103 914.1768784 -356.67226434 913.51110186 -359 913 C-359.48109963 915.52047792 -359.95992603 918.0413537 -360.4375 920.5625 C-360.63956055 921.61920898 -360.63956055 921.61920898 -360.84570312 922.69726562 C-363.8776213 938.74424721 -363.56118501 951.84948191 -359.19140625 967.50390625 C-357.1479125 974.88677612 -355.09477929 983.32564578 -358.75 990.375 C-362.4529895 994.69515442 -365.47318814 995.24475756 -371 996 C-374.67720223 996.23363021 -378.35651812 996.34839758 -382.0390625 996.46484375 C-384.25260868 996.54349279 -386.4661502 996.6222733 -388.6796875 996.70117188 C-392.13013718 996.81960781 -395.58063503 996.93604046 -399.03125 997.04956055 C-414.1603672 997.55408334 -429.25135565 998.19081662 -444.25518799 1000.32003784 C-449.80379568 1001.09810216 -449.80379568 1001.09810216 -452 1000 C-453.47365856 999.88376271 -454.95180623 999.8214292 -456.4296875 999.7890625 C-457.30753906 999.76070312 -458.18539063 999.73234375 -459.08984375 999.703125 C-460.93860482 999.65126634 -462.78759299 999.60692885 -464.63671875 999.5703125 C-465.51714844 999.539375 -466.39757812 999.5084375 -467.3046875 999.4765625 C-468.10890137 999.45674316 -468.91311523 999.43692383 -469.74169922 999.41650391 C-472.47924436 998.9116118 -473.91309808 997.79790034 -476 996 C-475.49404154 992.25590737 -475.01128841 990.33172229 -472 988 C-469.73400371 987.23211123 -467.43548591 986.55882699 -465.125 985.9375 C-448.92660495 981.21913866 -434.07672445 972.85063337 -419.76416016 964.06933594 C-418.20683995 963.12537489 -416.62641513 962.21976025 -415.04296875 961.3203125 C-406.67005829 956.56151546 -399.08419042 951.49346936 -396 942 C-395.19960726 938.87647345 -394.58528728 935.73262706 -394 932.5625 C-393.83411377 931.69230225 -393.66822754 930.82210449 -393.49731445 929.92553711 C-393.1587944 928.14623673 -392.82324806 926.36636793 -392.49072266 924.5859375 C-392.02969792 922.15649772 -391.54216309 919.73434421 -391.04296875 917.3125 C-390.7576449 915.89586708 -390.47247942 914.47920225 -390.1875 913.0625 C-389.93355469 911.81597656 -389.67960937 910.56945312 -389.41796875 909.28515625 C-389.008317 906.06537009 -388.87278533 904.03399837 -390 901 C-391.83784649 899.25127496 -391.83784649 899.25127496 -394.1875 897.9375 C-394.99445313 897.43863281 -395.80140625 896.93976562 -396.6328125 896.42578125 C-397.41398437 895.95527344 -398.19515625 895.48476563 -399 895 C-400.19230507 894.21558877 -401.38068491 893.4251284 -402.5625 892.625 C-403.7690625 891.820625 -403.7690625 891.820625 -405 891 C-403.75266976 884.89734465 -402.14048237 879.03585363 -400.1875 873.125 C-395.85155936 859.76135928 -391.83676153 846.30120206 -387.7956543 832.84619141 C-383.4441489 818.37378925 -378.9302953 803.9581338 -374.28881836 789.57617188 C-370.60205915 778.11994702 -367.21963003 766.59538082 -364 755 C-363.7539502 754.11876465 -363.50790039 753.2375293 -363.25439453 752.32958984 C-361.46172912 745.89722176 -359.71378232 739.45382132 -358 733 C-357.73654785 732.01032227 -357.4730957 731.02064453 -357.20166016 730.00097656 C-356.39341191 726.94107486 -355.59846984 723.87819773 -354.8125 720.8125 C-354.55654053 719.81444336 -354.30058105 718.81638672 -354.03686523 717.78808594 C-352.44235896 711.35955851 -351.39153522 705.00258017 -350.5625 698.4375 C-349.76006048 692.57891245 -349.03982991 688.1538158 -344.1640625 684.3984375 C-343.44992187 683.93695312 -342.73578125 683.47546875 -342 683 C-340.12230816 681.64956833 -338.24746807 680.29516553 -336.375 678.9375 C-335.4365625 678.26976562 -334.498125 677.60203125 -333.53125 676.9140625 C-329.85376409 674.13324754 -326.67181654 671.39234829 -325.38378906 666.80566406 C-324.90276607 663.28917791 -324.92790504 659.83576097 -324.984375 656.296875 C-325.05157174 647.26050204 -324.73088916 638.27240216 -324.25 629.25 C-324.18614609 628.04109604 -324.18614609 628.04109604 -324.1210022 626.80776978 C-322.66413618 599.91074628 -320.01318671 573.29326229 -314 547 C-313.69384778 545.60058005 -313.38901096 544.20087119 -313.0859375 542.80078125 C-311.96625888 537.75091759 -310.68404665 532.89448453 -309 528 C-309.99 528 -310.98 528 -312 528 C-313.07525194 530.65228812 -314.09456151 533.28368454 -315 536 C-323.54990685 536.31069648 -331.74661553 536.14026789 -340.1875 534.625 C-340.89318115 534.49891357 -341.5988623 534.37282715 -342.32592773 534.24291992 C-346.07626012 533.51974143 -349.51154552 532.55795054 -353 531 C-351.09500775 525.99806505 -349.11657865 521.11625646 -346.625 516.375 C-344.06397143 511.38690435 -342.12489255 506.24037146 -340.23095703 500.97216797 C-338.38443453 495.86828238 -336.23971122 490.94244212 -334 486 C-328.62306194 473.97412136 -323.53462597 461.90973571 -318.9375 449.5625 C-315.5788326 440.58001741 -311.80128691 432.26257494 -306.8125 424.07421875 C-304.96467507 421.14664625 -304.96467507 421.14664625 -304.00390625 418.31640625 C-302.78260183 415.49837699 -301.299238 414.18739669 -298.9375 412.25 C-298.22464844 411.65703125 -297.51179687 411.0640625 -296.77734375 410.453125 C-296.19082031 409.97359375 -295.60429687 409.4940625 -295 409 C-293.78356708 408.00516798 -293.78356708 408.00516798 -293.88647461 406.05053711 C-293.89171143 405.2178833 -293.89694824 404.38522949 -293.90234375 403.52734375 C-293.90556641 402.62822266 -293.90878906 401.72910156 -293.91210938 400.80273438 C-293.92048828 399.85720703 -293.92886719 398.91167969 -293.9375 397.9375 C-293.94426758 396.5134082 -293.94426758 396.5134082 -293.95117188 395.06054688 C-293.9629989 392.70696935 -293.97947975 390.35351523 -294 388 C-294.90363281 387.55269531 -295.80726563 387.10539062 -296.73828125 386.64453125 C-297.93005363 386.03456901 -299.12143984 385.42385182 -300.3125 384.8125 C-302.07013672 383.92498047 -302.07013672 383.92498047 -303.86328125 383.01953125 C-308.57274787 379.98740891 -310.12411584 376.43029621 -311.55102539 371.11914062 C-312.08423733 368.60240346 -312.40036424 366.08049483 -312.74609375 363.53125 C-313.86955881 356.73333428 -316.21825055 350.8363752 -319 344.5625 C-319.48621826 343.4394043 -319.97243652 342.31630859 -320.47338867 341.15917969 C-324.37438183 332.223485 -328.53669364 323.42088887 -332.78125 314.64453125 C-335.73325389 308.51662148 -338.3879191 302.28010939 -341 296 C-341.39316406 295.09378906 -341.78632813 294.18757813 -342.19140625 293.25390625 C-372.68064286 222.31360324 -372.68064286 222.31360324 -361 190 C-360.64292969 189.31550781 -360.28585937 188.63101563 -359.91796875 187.92578125 C-358.78753414 185.55427374 -358.52902399 183.41333654 -358.1875 180.8125 C-356.76495981 172.60553738 -353.40575975 166.65214245 -347.0390625 161.2890625 C-340.75134711 157.31407001 -333.76636144 155.81773464 -326.62109375 154.0625 C-319.04696958 151.84010326 -315.63206589 148.89833873 -311.1875 142.625 C-310.67340576 141.91980225 -310.15931152 141.21460449 -309.62963867 140.48803711 C-305.54149034 134.85106929 -301.56383747 129.13428385 -297.64453125 123.37890625 C-296 121 -296 121 -295 120 C-290.64237613 120.41900229 -287.01029046 121.28130409 -283 123 C-282.34 123 -281.68 123 -281 123 C-280.896875 122.071875 -280.79375 121.14375 -280.6875 120.1875 C-280.38865372 117.93054151 -279.98043039 115.94377461 -279.23046875 113.7890625 C-276.70205829 106.46937195 -276.97645888 99.94694175 -277.66748047 92.3449707 C-278.224461 85.56703861 -277.59430996 79.63567306 -274.84375 73.36328125 C-273.68781459 70.1255918 -274.11044089 67.5849049 -274.5 64.1875 C-275.00074786 58.38968447 -274.91467994 54.47051411 -273 49 C-272.63068359 47.87078125 -272.63068359 47.87078125 -272.25390625 46.71875 C-267.81467583 34.24944501 -259.62435441 22.41832893 -247.5 16.5 C-235.01843045 12.15183269 -220.92170582 14.70871168 -209.328125 20.28515625 C-203.66173144 23.44390669 -198.99435323 27.45974634 -194.2734375 31.8828125 C-192.36161521 33.66323807 -190.41966167 35.31520975 -188.375 36.9375 C-187.199375 37.9584375 -187.199375 37.9584375 -186 39 C-186 39.66 -186 40.32 -186 41 C-185.13375 41.3403125 -185.13375 41.3403125 -184.25 41.6875 C-179.91107248 44.21854105 -177.30573005 48.21232315 -176 53 C-175.27418813 58.23464318 -176.04466172 62.43047147 -177.8125 67.375 C-181.29279284 77.68012241 -181.68890919 88.730464 -182.67456055 99.50073242 C-183 102 -183 102 -184 104 C-185.134375 104.33 -186.26875 104.66 -187.4375 105 C-189.93515817 106.02153708 -190.79323524 106.51785795 -191.87109375 109.03125 C-192.60299062 112.6169773 -192.98449015 116.09008856 -193.046875 119.75 C-193.24569709 126.7485375 -194.96786856 129.64774514 -199.609375 134.7734375 C-203.65468322 139.74058975 -205.91629772 146.02091321 -208.40991211 151.86474609 C-209.00171265 153.20013428 -209.00171265 153.20013428 -209.60546875 154.5625 C-209.94731201 155.36816406 -210.28915527 156.17382812 -210.64135742 157.00390625 C-212.43191592 159.63456326 -213.97298498 160.14582392 -217 161 C-219.3320802 161.07646165 -221.66845878 161.09143299 -224 161 C-224 161.66 -224 162.32 -224 163 C-217.37845796 166.85930113 -210.78862818 170.68072493 -203.875 174 C-197.52391649 177.12473309 -191.73644112 180.86290804 -186 185 C-185.26910156 185.51949219 -184.53820312 186.03898438 -183.78515625 186.57421875 C-178.64776836 190.61291774 -175.65624196 195.49618539 -172.29541016 200.99291992 C-169.36987288 205.68000952 -166.9623902 208.56745578 -162 211 C-157.68591259 210.79412164 -154.7825684 207.57764253 -151.625 204.9375 C-146.01886438 200.39798297 -140.31367759 196.70267755 -133.9765625 193.2265625 C-119.68771815 185.34434063 -104.42250888 176.79097691 -93 165 C-92.34 165 -91.68 165 -91 165 C-90.77957031 164.43023437 -90.55914063 163.86046875 -90.33203125 163.2734375 C-88.58818734 160.29714086 -86.41365804 158.72772 -83.6875 156.625 C-77.52956793 151.68582532 -73.71949916 147.45489262 -70 140.4375 C-65.16765855 131.33987757 -57.49333836 125.80543201 -48 122 C-47.01 122 -46.02 122 -45 122 C-44.73058594 121.42378906 -44.46117187 120.84757812 -44.18359375 120.25390625 C-40.1934748 112.65556092 -33.84272486 106.77642559 -27.78125 100.83984375 C-23.52143493 96.49028539 -19.77164616 91.77181953 -16 87 C-13.63528417 84.07196182 -11.26293217 81.25619032 -8.5625 78.625 C-3.09141407 73.02047295 1.94263779 67.10747507 2.6328125 59.09765625 C2.71700439 58.13448486 2.80119629 57.17131348 2.88793945 56.17895508 C2.96616943 55.1505249 3.04439941 54.12209473 3.125 53.0625 C3.2077417 52.00377686 3.2904834 50.94505371 3.37573242 49.85424805 C3.89620272 42.67625124 4.23432528 35.50905933 4.3125 28.3125 C4.33006348 27.4469751 4.34762695 26.5814502 4.36572266 25.68969727 C4.36095894 20.90645361 3.98602669 17.93979443 1 14 C-1.91615996 9.20916578 -2.29007268 6.48280889 -1 1 C-0.67 0.67 -0.34 0.34 0 0 Z M-91 198 C-91.33 198.99 -91.66 199.98 -92 201 C-93.3117316 201.70822484 -94.64844966 202.37108515 -96 203 C-101.18273127 207.23256387 -104.992256 212.56615699 -108.84375 217.98046875 C-115.9496489 227.9313018 -123.55207958 237.16643984 -132 246 C-132.89332031 246.93457031 -133.78664063 247.86914062 -134.70703125 248.83203125 C-141.72336832 256.01667625 -141.72336832 256.01667625 -145.5625 258.375 C-148.08699824 259.74469518 -148.08699824 259.74469518 -148.83984375 261.8828125 C-149.23181808 264.05110294 -149.23181808 264.05110294 -147.8125 265.65625 C-147.214375 266.2646875 -146.61625 266.873125 -146 267.5 C-141.41739335 272.96071092 -139.5912932 279.11833771 -137.48632812 285.81640625 C-135.59874009 291.72933263 -133.80309566 296.87873842 -128.6875 300.75 C-123.50992916 303.15817249 -118.72539438 304.40895674 -113 304 C-111.41589593 302.41589593 -111.57619804 300.49476487 -111.25 298.3125 C-109.968063 291.69544282 -107.33309885 288.72649315 -101.875 284.6875 C-96.91474319 280.0507382 -96.24099404 274.00861355 -94.6640625 267.58984375 C-93.53448349 263.05525734 -92.34040886 258.54392396 -91.09765625 254.0390625 C-85.64819968 234.25214003 -80.64228997 214.61750812 -80 194 C-85.10761935 194 -86.78640036 195.2174342 -91 198 Z M-179 304 C-179.06058594 304.85980469 -179.12117188 305.71960938 -179.18359375 306.60546875 C-179.35962744 309.08889793 -179.54098439 311.5719533 -179.7265625 314.0546875 C-179.89860981 316.53708438 -180.04323391 319.02168565 -180.1484375 321.5078125 C-180.47797125 328.14556366 -180.98384007 335.98384007 -186 341 C-186.04063832 342.66617115 -186.042721 344.33388095 -186 346 C-185.01 346.33 -184.02 346.66 -183 347 C-183 347.66 -183 348.32 -183 349 C-181.68 349 -180.36 349 -179 349 C-179 348.34 -179 347.68 -179 347 C-174.20004797 346.22199319 -169.61437936 345.88148335 -164.75390625 345.90234375 C-164.09792953 345.9037587 -163.44195282 345.90517365 -162.76609802 345.90663147 C-160.69818298 345.91216969 -158.63038158 345.92470998 -156.5625 345.9375 C-155.14909012 345.94252301 -153.73567852 345.9470845 -152.32226562 345.95117188 C-148.88147432 345.96211874 -145.44074828 345.97933962 -142 346 C-142.33 344.35 -142.66 342.7 -143 341 C-146.01031744 340.06576355 -146.86650268 339.95550089 -150 341 C-152.84765625 339.78515625 -152.84765625 339.78515625 -156.0625 338.0625 C-159.8387983 335.81216844 -159.8387983 335.81216844 -164 335 C-165.96191891 331.19329167 -167.70524232 327.28995724 -169.4375 323.375 C-169.90881348 322.31236938 -169.90881348 322.31236938 -170.38964844 321.22827148 C-172.45817837 316.47789358 -174.11504523 311.77919933 -175.296875 306.72265625 C-175.52890625 306.15417969 -175.7609375 305.58570313 -176 305 C-176.99 304.67 -177.98 304.34 -179 304 Z " fill="currentColor" transform="translate(719,13)"/>
</svg>
